<mxfile host="app.diagrams.net" modified="2023-03-23T08:12:41.593Z" agent="5.0 (Windows NT 10.0; Win64; x64) AppleWebKit/537.36 (KHTML, like Gecko) Chrome/111.0.0.0 Safari/537.36 Edg/111.0.1661.44" etag="6gSBV1N7k089ZDrxdV4p" version="21.0.10" type="github">
  <diagram name="페이지-1" id="9SbutxJj2b5bRjDAkJWe">
    <mxGraphModel dx="1397" dy="20604" grid="0" gridSize="10" guides="1" tooltips="1" connect="1" arrows="1" fold="1" page="1" pageScale="1" pageWidth="20000" pageHeight="20000" math="0" shadow="0">
      <root>
        <mxCell id="0" />
        <mxCell id="1" parent="0" />
        <mxCell id="o8AhM5z9xb0QQ9GoazW1-311" value="추가 검토 필요" style="sketch=0;points=[[0,0,0],[0.25,0,0],[0.5,0,0],[0.75,0,0],[1,0,0],[1,0.25,0],[1,0.5,0],[1,0.75,0],[1,1,0],[0.75,1,0],[0.5,1,0],[0.25,1,0],[0,1,0],[0,0.75,0],[0,0.5,0],[0,0.25,0]];rounded=1;absoluteArcSize=1;arcSize=2;html=1;strokeColor=#6c8ebf;shadow=0;dashed=0;fontSize=12;align=left;verticalAlign=top;spacing=10;spacingTop=-4;whiteSpace=wrap;fillColor=#dae8fc;container=0;" vertex="1" parent="1">
          <mxGeometry x="2645.5" y="-3450" width="487.5" height="209" as="geometry" />
        </mxCell>
        <mxCell id="o8AhM5z9xb0QQ9GoazW1-8" value="&lt;font style=&quot;font-size: 15px;&quot;&gt;To-Be Architecture&lt;/font&gt;" style="swimlane;whiteSpace=wrap;html=1;" vertex="1" parent="1">
          <mxGeometry x="2012" y="-3646" width="1602.5" height="1238" as="geometry" />
        </mxCell>
        <mxCell id="o8AhM5z9xb0QQ9GoazW1-9" value="H/W 장비 Test" style="sketch=0;points=[[0,0,0],[0.25,0,0],[0.5,0,0],[0.75,0,0],[1,0,0],[1,0.25,0],[1,0.5,0],[1,0.75,0],[1,1,0],[0.75,1,0],[0.5,1,0],[0.25,1,0],[0,1,0],[0,0.75,0],[0,0.5,0],[0,0.25,0]];rounded=1;absoluteArcSize=1;arcSize=2;html=1;strokeColor=none;gradientColor=none;shadow=0;dashed=0;fontSize=12;fontColor=#9E9E9E;align=left;verticalAlign=top;spacing=10;spacingTop=-4;whiteSpace=wrap;fillColor=#F3E5F5;container=0;" vertex="1" parent="o8AhM5z9xb0QQ9GoazW1-8">
          <mxGeometry x="35.5" y="1026" width="404.5" height="147.5" as="geometry" />
        </mxCell>
        <mxCell id="o8AhM5z9xb0QQ9GoazW1-10" value="&lt;b&gt;[범례]&lt;/b&gt;" style="text;html=1;strokeColor=none;fillColor=none;align=center;verticalAlign=middle;whiteSpace=wrap;rounded=0;" vertex="1" parent="o8AhM5z9xb0QQ9GoazW1-8">
          <mxGeometry x="22.5" y="169" width="60" height="30" as="geometry" />
        </mxCell>
        <mxCell id="o8AhM5z9xb0QQ9GoazW1-11" value="&lt;font size=&quot;1&quot;&gt;&lt;b&gt;LGES 보안 정책 준수&lt;/b&gt;&lt;/font&gt;" style="text;html=1;strokeColor=none;fillColor=none;align=center;verticalAlign=middle;whiteSpace=wrap;rounded=0;fontStyle=2;fontColor=#8977fa;container=0;" vertex="1" parent="o8AhM5z9xb0QQ9GoazW1-8">
          <mxGeometry x="645.5" y="140.58" width="133" height="28.42" as="geometry" />
        </mxCell>
        <mxCell id="o8AhM5z9xb0QQ9GoazW1-12" value="" style="shape=actor;whiteSpace=wrap;html=1;container=0;" vertex="1" parent="o8AhM5z9xb0QQ9GoazW1-8">
          <mxGeometry x="364.4700000000001" y="1050.25" width="40" height="60" as="geometry" />
        </mxCell>
        <mxCell id="o8AhM5z9xb0QQ9GoazW1-13" value="검증&lt;br&gt;인원" style="text;html=1;strokeColor=none;fillColor=none;align=center;verticalAlign=middle;whiteSpace=wrap;rounded=0;container=0;" vertex="1" parent="o8AhM5z9xb0QQ9GoazW1-8">
          <mxGeometry x="345.08" y="1120.25" width="78.79" height="30" as="geometry" />
        </mxCell>
        <mxCell id="o8AhM5z9xb0QQ9GoazW1-14" value="1" style="ellipse;whiteSpace=wrap;html=1;aspect=fixed;strokeWidth=2;fontFamily=Tahoma;spacingBottom=4;spacingRight=2;strokeColor=#d3d3d3;container=0;" vertex="1" parent="o8AhM5z9xb0QQ9GoazW1-8">
          <mxGeometry x="395.5" y="654" width="20" height="20" as="geometry" />
        </mxCell>
        <mxCell id="o8AhM5z9xb0QQ9GoazW1-15" value="" style="points=[];aspect=fixed;html=1;align=center;shadow=0;dashed=0;image;image=img/lib/allied_telesis/computer_and_terminals/Laptop.svg;" vertex="1" parent="o8AhM5z9xb0QQ9GoazW1-8">
          <mxGeometry x="82.5" y="733" width="72.96" height="74" as="geometry" />
        </mxCell>
        <mxCell id="o8AhM5z9xb0QQ9GoazW1-16" value="" style="points=[];aspect=fixed;html=1;align=center;shadow=0;dashed=0;image;image=img/lib/allied_telesis/computer_and_terminals/Laptop.svg;" vertex="1" parent="o8AhM5z9xb0QQ9GoazW1-8">
          <mxGeometry x="200.76999999999998" y="733" width="72.96" height="74" as="geometry" />
        </mxCell>
        <mxCell id="o8AhM5z9xb0QQ9GoazW1-17" value="" style="points=[];aspect=fixed;html=1;align=center;shadow=0;dashed=0;image;image=img/lib/allied_telesis/computer_and_terminals/Laptop.svg;" vertex="1" parent="o8AhM5z9xb0QQ9GoazW1-8">
          <mxGeometry x="319.5" y="733" width="72.96" height="74" as="geometry" />
        </mxCell>
        <mxCell id="o8AhM5z9xb0QQ9GoazW1-18" value="" style="endArrow=none;html=1;rounded=0;entryX=0;entryY=0.5;entryDx=0;entryDy=0;" edge="1" parent="o8AhM5z9xb0QQ9GoazW1-8" target="o8AhM5z9xb0QQ9GoazW1-19">
          <mxGeometry width="50" height="50" relative="1" as="geometry">
            <mxPoint x="155.5" y="1087" as="sourcePoint" />
            <mxPoint x="233.5" y="-1727" as="targetPoint" />
            <Array as="points" />
          </mxGeometry>
        </mxCell>
        <mxCell id="o8AhM5z9xb0QQ9GoazW1-19" value="" style="shape=image;html=1;verticalAlign=top;verticalLabelPosition=bottom;labelBackgroundColor=#ffffff;imageAspect=0;aspect=fixed;image=https://cdn1.iconfinder.com/data/icons/hawcons/32/699120-icon-44-file-xlsx-128.png;container=0;" vertex="1" parent="o8AhM5z9xb0QQ9GoazW1-8">
          <mxGeometry x="174.77" y="1073" width="28" height="28" as="geometry" />
        </mxCell>
        <mxCell id="o8AhM5z9xb0QQ9GoazW1-20" value="" style="curved=1;endArrow=none;html=1;rounded=0;startArrow=classic;startFill=1;exitX=0.763;exitY=-0.029;exitDx=0;exitDy=0;exitPerimeter=0;" edge="1" parent="o8AhM5z9xb0QQ9GoazW1-8" source="o8AhM5z9xb0QQ9GoazW1-16">
          <mxGeometry width="50" height="50" relative="1" as="geometry">
            <mxPoint x="289.5" y="708" as="sourcePoint" />
            <mxPoint x="398.5" y="668" as="targetPoint" />
            <Array as="points">
              <mxPoint x="282.5" y="693" />
            </Array>
          </mxGeometry>
        </mxCell>
        <mxCell id="o8AhM5z9xb0QQ9GoazW1-21" value="&lt;b style=&quot;font-size: 9px;&quot;&gt;Pull&lt;br&gt;&lt;/b&gt;" style="text;html=1;strokeColor=none;fillColor=none;align=center;verticalAlign=middle;whiteSpace=wrap;rounded=0;fontStyle=2;fontColor=#8977fa;container=0;" vertex="1" parent="o8AhM5z9xb0QQ9GoazW1-8">
          <mxGeometry x="161.91" y="646" width="111.82" height="30" as="geometry" />
        </mxCell>
        <mxCell id="o8AhM5z9xb0QQ9GoazW1-22" value="" style="endArrow=classic;html=1;rounded=0;exitX=1;exitY=0.5;exitDx=0;exitDy=0;" edge="1" parent="o8AhM5z9xb0QQ9GoazW1-8" source="o8AhM5z9xb0QQ9GoazW1-29">
          <mxGeometry width="50" height="50" relative="1" as="geometry">
            <mxPoint x="234.24999999999977" y="1229" as="sourcePoint" />
            <mxPoint x="364.5" y="1089" as="targetPoint" />
          </mxGeometry>
        </mxCell>
        <mxCell id="o8AhM5z9xb0QQ9GoazW1-23" value="" style="shape=mxgraph.gcp2.google_cloud_platform;fillColor=#F6F6F6;strokeColor=none;shadow=0;gradientColor=none;container=0;" vertex="1" parent="o8AhM5z9xb0QQ9GoazW1-8">
          <mxGeometry x="195.5000000000001" y="1031.9999999999995" width="23" height="20" as="geometry">
            <mxPoint x="20" y="10" as="offset" />
          </mxGeometry>
        </mxCell>
        <mxCell id="o8AhM5z9xb0QQ9GoazW1-24" value="" style="group" vertex="1" connectable="0" parent="o8AhM5z9xb0QQ9GoazW1-8">
          <mxGeometry x="64.72999999999999" y="1062" width="108.5" height="100.25" as="geometry" />
        </mxCell>
        <mxCell id="o8AhM5z9xb0QQ9GoazW1-25" value="" style="sketch=0;shadow=0;dashed=0;html=1;strokeColor=none;fillColor=#505050;labelPosition=center;verticalLabelPosition=bottom;verticalAlign=top;outlineConnect=0;align=center;shape=mxgraph.office.databases.database_server_orange;container=0;" vertex="1" parent="o8AhM5z9xb0QQ9GoazW1-24">
          <mxGeometry x="32.75" width="43" height="57" as="geometry" />
        </mxCell>
        <mxCell id="o8AhM5z9xb0QQ9GoazW1-26" value="ATS &#xa;(H/W Test 시스템)" style="text;strokeColor=none;fillColor=none;align=center;verticalAlign=top;spacingLeft=4;spacingRight=4;overflow=hidden;rotatable=0;points=[[0,0.5],[1,0.5]];portConstraint=eastwest;fontStyle=1;container=0;" vertex="1" parent="o8AhM5z9xb0QQ9GoazW1-24">
          <mxGeometry y="60.25" width="108.5" height="40" as="geometry" />
        </mxCell>
        <mxCell id="o8AhM5z9xb0QQ9GoazW1-27" value="" style="group" vertex="1" connectable="0" parent="o8AhM5z9xb0QQ9GoazW1-8">
          <mxGeometry x="199.5" y="1059" width="100" height="101" as="geometry" />
        </mxCell>
        <mxCell id="o8AhM5z9xb0QQ9GoazW1-28" value="ALM &#xa;(Siemens)" style="text;strokeColor=none;fillColor=none;align=center;verticalAlign=top;spacingLeft=4;spacingRight=4;overflow=hidden;rotatable=0;points=[[0,0.5],[1,0.5]];portConstraint=eastwest;fontStyle=1;container=0;" vertex="1" parent="o8AhM5z9xb0QQ9GoazW1-27">
          <mxGeometry y="61" width="100" height="40" as="geometry" />
        </mxCell>
        <mxCell id="o8AhM5z9xb0QQ9GoazW1-29" value="" style="shape=image;verticalLabelPosition=bottom;labelBackgroundColor=default;verticalAlign=top;aspect=fixed;imageAspect=0;image=data:image/gif,iVBORw0KGgoAAAANSUhEUgAAAPAAAADwCAMAAAAJixmgAAAAYFBMVEVQd6EzXo4LNmpbiLN0qNSMweuDuuUAJluvu83z+PwbR3lmmcaQxvDX3OafrcPa6viMnrfCzt62wdLu9PqHvOfi5u3q7fJ/s96IveYALmIALmOIvegAL2OIvecBL2P///+c90t9AAA3A0lEQVR4nOy9a3fbuO49bMtW2MpqfmmrXEBS7Pf/ls8isHGhk3aiPuv/Zs54ndNJG1sWRBCXjQ3w9Ot/7PWfwP/2138C/9tfHwr83F8vX//p9fzn1x8v8P/ok+NnPyvwt6m/zvM/vZbpT692Wn//0fKnz/7xk9s/fOvFP1v+77MCU3+l27r98bWeEv3hlZb5tx8tZfnDZ9Pp9988X//0nZTaa7H3Pnxa4EattbTMpZS9lF1f/cfC/8Z/ma+Zausv+bO1WvFTba3S9Drve9n4GmXfhivNS/8KotZqrq3mTK3l3Frr/0+ndX8r275v4SP4+vWSmr0y9W/KchH+XzrP/G17v8eDAlO6rLuJyD/IPRfcRpmXVGvuX0hBanlRI7rNZd/f9N18Hb3IfE4iHUsaPtcfVf/iHW8tJqu81nOqd+9vjeSfMvWPbixt/+RBgWWJ5Vnxl2/+qOXO11Oq/NZM+u3VBK/9y8tbWJ/w6veN5YSOVKq4dxaYdUKVA/IWV40qH5FP9keOG6DpOu+qleWQwBVf7F9m31ygM6XvJ3z5/TPPrVI6ryVsBLl7LHRfqP7eLHodNkZt3XqYWkLggnWeXyd7uLliG9VGInzrGu2acURg6ldLC/Zr3MF8GxvWbEmyMLz7RNNqrrwfa+WP2x2X3Z/VzsrR77TmmvVu8WfFXlDVKqbSXeCbPR88oRq2U06XOdzoEYH5rnUzuR7rC9rNOi1fJQJXVmrILlYrrNHml1lPanv0OTU2BpVqI7rOu21i+375xkuq2PQsKNQJS02tf9K2/SGVzmw9FtsQajG3Er6+P29qakT62vDtVyKxelip+z2hAqtV7ra+21mSJ4bbHlTLBD4nW9zqKw3vkJY1fvCIwLU/wdpgPuLahj21d53uJktNbRS+tpxO6/0i6c/mXfoDcyNfc39sk61w0Gd5zUtqvqh2BV712ui0xn1zSKVFX9LyUMJtRiflC0X17hYadLubkC0urN/5ekliYynXzJu533Ptzoy3ghu4EiXuNquqO4jf2sVtqhpYlINuKXMYEXdx1C3cAtsQ3YTE68qeqfLW7I/LPjnc+L7ekihyt47Y+BWhCO/9NzN28YP9+4I2E98lxNVQqdiXHXNL8viI7xnrMzpi/u+2pOqxg25KaKk8cdPOQTX7natnMZUQ3ablYY5Puexm71ijsGFzizFe/ylBo/e/UGnWN3ZNcYl9pUu0tvbMq1lM/jTJh4s7c41jdnbh8lgsWCENtBYYyK6b8mHdEd1930d07AUrBx/yfC1wOBppyS6eHsqdsHswJX2lfJlimNiFHx55CfHDPl/71sfO6ZsBUQiH0kvw2iXE4N3xdwtF8j3yAx5XzrVrtN3i0UhLtaZWvmk3XDHYhE5n31IuON9LWuYYuHhMDuvTcwZ+XFU8Elaabxzratto2+UxsQOTyKayhzCt6knW7h7wsFuCe6O+xKNrCo/8TWMPhMJm35EwPZRS3ilH/4+EiJU08ODIQ/ZEOs8l6EV4dVMHgcVQZPVlbO+CxTi8hyV80Ad3f8PB/Mxibi3IqqSWN95DeET474P4F8riuiWxlN2Yzmo23soYr3SLkZtFWFApzi8RCNvDPS5w1kdJ04Pe9duwWKKm25IoI9gzg615Mgcu9/KyanfzHhJouXd2ykHgO9PBcVb1j/H+N/9gC2NfdExgQurlVyplf9uRO/h2nPtT5zgW4UMNu7knTCVmd/ZHz6WxcfXJqqa6SiGzVUdeHhYag0pod6bKKcc+7r1De5gs2dQkYHzYxePpHjMx9kFVvZP6SDWc/ln+3FsXmBBoSeQgrr+qwBpvbNF/d5uVkezz/eWsjqGyM7vLNw4HHvose0ysT3nb9wH24ceu96zWuqoF+uBZ4UGxdvKNQz+rpB/QTY+wdM02TZUGPMmSQ9cLWYvtLwWWraV5Hq6nQf3+thdNYMZwQI02cvn7VdZPieb3lFCWKcsWuqx3Fg7rJkk0dMgek/xPNDp8xXbUD6sE2Z+emejw+Ev3FVn2r0EWfiuuHGGBTeAQXzWgAFkELndfx39fFwhc2Q+TPuas4VkZt86hbMlwF2qZYiq/lwjHFTYliV1DZcdYSb0FC3xePYyOFgUIQEzz9Bt7Gi2IVnHcsG/hhwnPJkNklZa33RwQJPnY0fQQutlNgwQxlp66wG+6HaHCWF8BEdk5bpqu7UPCFAUOcXg39ukGIM4gYQh8JQt5kY8RIjUGG1xg/PeoH3bFxC4ud/kw4oIe/2SKQTQHQXgCFv6MH+8CWxQOPy7OYdiN3aDbR7rNCsB3k3BcQpbloQxB92ErDWsiXj4HG7iN0V6/eI+acs6IEqvjj6yfwXgGQ7ReUs5DiKZATXxGlhGrYc8502AoyB2+fY9al2PpoThWQsQL2KWowBKDQI71nLJ4X0vzfEN6/KO2nf/jLsa8NyMBmbrAZUw5ON4p80I5lDeyb+CA7MZQ5ZhbUuiUBGeXeK/crRMe/S3puzmOIKQ/LPD5TqUht8QrlkBrupLFQpaYnuErOcGqnppIhghgmLOU4a4OClw9KZGtpiGEGc0YqT9MCqT5SvW4r+cxYz5tdyWAp6IcAlkgIxCByz1qKSAJOUpJWXLoWvMH4ffR2pIoTM7AqGoN1zQ3o/eD2AO2p6KCwrrXE6ZyfzP99q9u5wK23lVKgMOPdr08fhKRq+HwldhS+DJIjebYHiZd2pa1IHKdXTHHTHW9CfJC/LlMvC2rPP0RIzI/w7m8oUNk3ilnDorH2ExDlcxmIiMl9EdF06t94G3f397EAx5GPHKWVRbTokscUj0zXH17mc3lpbWEddQ2V+nXCXDU6I6bIDVlVE5esQGSHqBhNTB7xDuOY1pm86UCO7qL0XBZoAikhDEe2WKWMI3FZkAe8jgFbJX9WdOyfoSvyBOKQRmpjW4GFrplPJw86OZtDZhg9rUa7b/qdIwTsdikNmjX0MkXrOe2edjASOWDXQ9GWlyBPBmDhWC/Qk5md3RYYAR7NagbL/FbVGkPbVARgBnVT2QuM91mhZW3bbO13pfkbrvxtpea1P0ewAc4VbI0mP+ocOMSsONL3gKMdBimjVlfDeFM2XSFi+t0RiXMTVDmAAYJ0+5FKv4YqkQGFthzFZQkbGBRCoaksxakFaus3bByeuWG3QzqcZi2ikPVyKYv8abaPOhbVzjRhxgR2GMKlV67p/mccsBH7ANVSnB7vHOAYCSuvQYvxpZGAv1gT3F/BysPHqj3MJkdAmtb9I6mPahyRWwKuloNTSyDGZ2FA5CtyoEiogHhEagt6sZsA1d1TzXY6BGLOYx4kGTFjC3IDwy7lrvIUqzvemZoy1HILP/P2R2443kSrCBSgj5J4SGucFRrViGJXHN2lEdttD9+/ent2B4muKXMDgYOhEaDUmAOOd+1+mcNfwrcNiZMxQWOtpkqSss00g40VhGbZY4D35LdDehrc5Di0AoTJ4easWqdj4hjODW2ltbvgW2SzQRhGdRqxa0AUL02M+uqGyZwRFZkB3CWrZtYHXcb3Vh///ZXtKVKXKCuavvl1U3oVhxPD1WBnq1GGy2oYiUunZSoFPyTVj7Z0imE1x9xV4jyLk7hnNuuDBfcWhvrm+LwN/nsfPtxSGCNm6rziXryJnB39MGb4hGEZFJg/Kp4BBKmbTCjZb0kDmga3e0Aus1xD7/xCksZrQ3mWQsj17mMgJ+g9mU9Px4R2OxnM68KBQrONAA3rNM51nzMbbTrXNya7AbYIDGsktcrlM0C3ydYjBeQcgWM05YJCXeJQYFgaPM1fTkosG1F4X4J44Q1Dtd/cyNUgMA0Vwz9UeviO2oJhu6SwTrhuQrgUe48t2B+tbWYQmfT6Lv0rSBSOSSwhn3m9gA0gOz2PscV0KYNzlhM0lB/1P0J0kOLNY6s+oBSjlNDlL0DFylljtz8+QxFJb7+tR0TmOpYT8hITphWbBJv/iVupzWRzgIhcF18HwKzAu6APkqUoofqjLnsLsvrJOhCJgvsmRPGuVWAooONOKfPC8xUmVoHKyEPoFZlFrxfYy1mGs4Gdh3F/FxlKTBDhlIp/iFvNsujcAHYQtn4qDXEZaDsxtJMv/ynBf65JIsqW/SSjGQKQriXd1J3nc5SafUSiMDltzWCQogVJ9LCCRtcJcQK18mdvF6aHXAdkGl6h3tzXqO5xqcF/nrlqLK6xBXoGe9toRWbWdnUAEs8bQJXPB+h5Qa7IgvX3+2pZLaiPkLvEgFSDlxzrjXHbcZ6scxOa3S9Zv35vMA/mbiBcqSF6gaqVEBmvmb4QyuChBwLWoqINGxgvj3f8tmvXxUhGegVAklr2k+BkS6l1ZiY2A5u+fMCzw9LMmjKKgnmZAV1Cur8FnW65lDElVKxEJHCJgDkQYalc5AlYYrX0E0Q1oaM6B4QUq1mo++NiZTO6cAe3lemFArmW81jZLXXxtH3+OZNYScaXCvgDCsw2929MdnaMGY2h6xVHIiWYV8KiE3wFI08S0FfRngr6hpd1w6odNkix48DGjfZ1Shgo+PbpZOBQukRMhPX9mzR1GotlvA1R9cFLyh3968uHjeQ9VFyKnlHcCq7UvUPrPDWlTpcGAFOj99ZtSQFHbJi1ekeENAADWVUmCKbv4fHTHqomhbqBjU02LGzviMzBSY4Cf6iKH/Z7x6/NBgcElhqoNgnakA9kAqbMgYfxu7VbcDGnnTZxgrNrFQJIwT3TUwD+0gJFmxSYP2Rqys1C9fb9O1vUkg+KnCAmptleuHvIScLQV2ZQVVRDA8bIdPy8GGcIg8SCWVFJDFvgePULaLGcHBjORu0cFpDob2EBRYaxCGBxVIHt8Hpg1a+Yv+H+aeibVSENxpJEPHBwFGDwNm6gJCOgU8SQtH5JmgHV6oVJOTmiNtgS/TtwtStxwSWwr4Znoz6XkaLUDUgKWBnEj7BhHJpmaTqJUTioQJnHSLu9bJdOCZhsUGiZub5GO1tKTGaVIkBRdABPyw7Als/hxp3NcqK8cBGCzMboVnZpixw1QAhglqnVClg8aI6Dmltlmx7IQeVTFWz07oPebYk2shKjsTSHJD2UDF52Va7kqSWWD1cHPaxJOoKTwF1Y0e2evEHzWmXlK1kKJh6X5c08q12oSg3B5qq4f10m4cESSTmx8P8mENWegcS6YVMgdzgF6rwc+TJ6Lpt+wDFVEPzqLXp9c4rWWOL6DRTRLrXg8BvDoMJJD3UQKSguWxx9xalFpAiKYcELhFK7Wle1SABwbX2NQ42owBfH0tMIBKHu2KjpX0eXUlz1qSPcdEQxG13yIIXCNJpDq7LEqtzIkmsj+1hqf+Axq1VUH/OPQVaHoaMXpZ61rvLZqDbAPN4seLWA5lqmUA1ACxoKVvPkzZmUrgFhG/3fS+r9+oddEv8zBhpiwysvh+rpH5Khg57uOxeEsnMsCVQ9IaaNSw6t0vUGi7Opj1QJGS/zx4RVHXDRNZw4zHops6uHhXYGnYkksjVmplzdXYVM8dLgJxliZeUrRQHc90d0zJg03g0Ji0p72dAeETghymQNx1Ruasyyo3wAksiciQ9hC0C+FqzkeUo7E1nqxXWPcABuuOqfi9UFVw+j4jgs4NVRHG7mHnjaq+zQaoSuLtJyaBm+XPs+q/a0GPaQwIX6RnaNoGPcwRGjceRUdUxTmf/jNxf1g4dXWkSyqizAMBhqGL7q+faD1FgaYI3WpA4CH7a1nwSNkBhH6ywwyE/LBJssoPqAF/C7dRsVSO5QVDHuYe7mpXLGZCeFgXNxJTXSYmSls4HX2NVhPWUtK1aGpay9IGe1zuB37DdvUp1MNIC9sSal7XmXh0HrzzXYIvIyi5GVYmlmhrX5kwGN+w9WHcdwCrGpgERGJB0Np6hbK2u0ffQqbT5WOPFMbfkVzESK9FYRqG+bG9vw7cWxV858K1Nsg7EoiXaIkn6BJvO2jTUQnsZXLG6RrfUxGTDCP1qKM9AMenTPqjSdrF5SeiWy2Kn3RvLEo8IuC5JAzBUVS0GkqxAHrp7JSlod8VP2SHcUAoSrWQxDIQOuKAvsCLd7ZCV3rdYuuAlszKBO0TszC3ET9JdxPBQtL7NKNyDKkiiUQdISBEet0MXlKwUWhCIE1FHlJetB9rbck/rDqq00Ab2bd90fAW1KG8T7qj3f2jxmh0sQxJG8zJEdQ8tuUJ66ItnotCdwFrPyCG5lgw6tMuop0OQZZ7kWPJQAuQsSq1tDNpYKJ3OIyIjitFjD2cEKy5/X6lnlkf2qFLC6ZD/44qL9QWG5DCd15g5lKKoYPWo7XA+bNd7g28Nmlcx1eG+M0kkOWnskcmV2ojEW3ibYXiaeQ/tR29FS3S1xp60mnvmYh4d0GbfwQIt179zS6HW0e9N4169RXFUcYm16KJBY6yRCcyD2zMgg6NWzX/YqI+l1Z5iJP267NsJYwL2ELv5AqNidSQfLkFg3OOSNHKqVi7HMIjX2eHLoiw7lTNrNpRl8Ms9cmMsnuZNS3tg+WklnLx042y9rTgzSEy0dLbCsv1F8uBaehtwmBbK3t1QF/9mU4jm0Iff5XDNC/ddZUdtBkjLAaqqxteSSB9PpJkaFjij3Mx8nMPJwxbB/1OqAwvL0lJFJIvDeWKnA7lWMsol7vatSJqhRGuRKZC61GYlsikhPS+s3iUQVJ/742oO/bn5mB9+R2qQQDAb+TJ7sQkxQMAzeAfE5a1m38JlV9ue1QJHb4otBoNyXSlHn/6edsGOJIdGiKOBR+hr0Lk7nIhkZQm3sMiTEhJ15xUgkhF/zfWenwPSQ8XcA6HOSJdWsQrsLUGTLYPsS8fWIMQn3lijyCHb00NW+q2UfYj1pWh8t24ClgnnNAgs1azsLCPdn5Fs09+U0YlEFnmMtPvQsaeMzNruGn20MofGKeDbh/cwiyqr+7apUgvcBmktz+e7DCj7HhoUhKgpodIdpd68O3Kr/E5gg6Spep7GUxHuokpJcDLIreBnHLPS74lJAjNy/VBXJKOK5/a3+MrwV5MDgDxgK75HR1vUELU6wqOWA9wmbEsJsy7rEJSbD/Zq57H08Ou8hdqFYyiYk5LzUADOZFy7MtZ3KOvWRDvAZOOuyo4gSnNXkpY2An6Nb+QmeOzupjGFRzCWgl8SynfatHlM4OfAhYvxxyxdleqP5FFK6fm8jlZL7DT2OOsCpy/M4jM+zMMkTW9S/MRoqYcAUjFqmj2gFBDCqhjFSrBLuh/3dMhKf1te583Hm9kfG9tCpfOoFWm6i/cYfNhItCxMBZsO5KgMl1AUE8EormTVBPP+WniVlvBsZEOPo3kHZwyrCYNyPi9wWra5mNktFhAWGVVAqKhVUv9UFWHCvWJ4XQ1YbQYzVS9ZLF5tWm5EGTbM0eKUWUKYrBiT7x+Ni8qSNHqp1lOdD8TS3/qdzQ5G+u6cXydEFBRKH01nshTv3TU7LcA0JopxW6GhBepLmqd9Eo2pvvIeAqiJR1yJltm6x0NRuqo1l8puDzKPcC2FCB4Modzmhk0V3HAWS6HhlgFS4rZVqzUzvsZxEcKBad5qpl1aGrVxiJpbCyNRqVqRVDEK3cHkrGKhqU7fPi8wjbz93cyDMyFM0WDDbibLtqN05PYDvsno/eK7bJqn+BMfS6NJyCUp6zTUKK7zGOULyFhzhBh5DS4/Py+w8Ce8hq07elPeSrhTiWB1Co35lG1xuDZbwS8IzA+PtLsOb4hNu/xECOQ+ODASam5EvbTFLTvWJi3en58+LJSgyxpn7mBjbda+okw9cMK9zlk89qixY0tA2CgPUxnI3yA9PG6B1yUFbzMADkU51WEUgs7W4AWg6XpEYNaj24CnFWnrDfW5SrafswGs75vedV6lwjx2Sae5W4rDNV/1XAbvBFB6mAO3y7SnkK1WtMXxozs2uKS2NF29WGZ6uMlt5BGTz9afpMqPCVKaYGAsoGZ/exnGl9bqt2n9O1rMz2TBTstKtlU1Qe0uyCtQVFrmY5NaOE4QiYdxAvDzmG+M6CNzDdX6P7ACiBpUYTUM9g0iZFT7fa5VyUEwakFbWY5arZy1A1LaFuSPedBrVoTD7bQ1La/z29DxL3ioUN9hpm0Kjy6xCiRDL+ugCaiLB4FGRqGYcU3BYyUcREgaZ17gErkqWS2H6UGHu0t5SNUdCMvhh1R2faoztFb6DywGKttCaCiUWb25KvMYAnH65Tgt3bFQUUlAusL9UEKI87wmDF6r5ExVUfy/aJiuUU1LtDZjQ4Tcji3xbisEeL1ibsQI88gedTOuY880X36dEBlnexuvnDcC8u5qAYuArjWmsB/sPRTWTpz54qI7BjxI7bXOsgcGUfXyUY0TiXWakLa61wzqlZv5EL22NkzNYsvCDK5K1XaFxJVc8To6fEjwzjqGXAaeXn2okg8+kv4Pfxf3+Ys1yiTxLRjOu2W7SA/BndNU11Ilg8DlwQRq1uZRNONcPuC2Jp71elzgLOWyOz6veRSPjxymvpuBJxPsBR7h+Y9k3npHn8c4gttGSzM/65y004IA1abTvBX/vPBfB/I6qF4c3R5smM7o5+8h17DAIDYk7RlEnzT/H7Cyg8WoKLCVlTHsXnvWPg/SPlQaioKe1mNCd9WpWbu7tWg19R60B//omEcGWklNgAksMkudHzQs9CaGJS6G+8kN52oUVfcr8msdJsEgbajrA+NDuzDD4KBmATApkeCM0hQ/0of5bwQWbgE/WAu5Nl89KRo3n0gpGk7jJBp4UibciRcDnU0U5WFJZPO0xOo5kVzUI+BnFOcBwQdXbR+zkS/cKij3eHyshRGTNeQKtjpm+M3acWCoDbxkvgLjLtWG162uK+jzUJS2ReY8Kpah68JsongKJqx5nF0lw+wPRQKXg0eXKHbAmGwPuULmh3qsJrzA2QRvTZfVaS6M0+XYfu394huPMbQEk51SoHzz3IsWK/8tULMKWszh0jTUdUrC8RV2XaUsIZc7HK/vNu2PqxmmSadYePEvx9MrmLCoRyDM50ShKCmNnL7BbQK7KpoPMesmeoJXJB/4iC1VhDd2UKWz752aBeXarThpNoesV09iyDp2cfWNSE1R++YDthhNWKPAUpswgYOTZs3Jeawsaqo1dFxXbZ/hBODg8CHNY6rVCAv3mFgqsalSm0emqkNiFTDgjTbcUvY56kPnDD/kYJX82B2FNcPwtbLNOqVNcyRpWpPIFbXAgwKbM68Wxpa7UYp64oriFULM1toex35aHGpNp1CGiT5aKrMzQLy/yU8JsZK5fxClvdyGyNOzS8QKh7IlA+dcsy3I1F7mglBH+zkkvMsOpmPwFPnIkZqz7dMNAsMKgNLyBpR3DiO65EAXC8MtSDOgBAbHU53jRouiQnNcIWVZq3uLTnIpQl1H1jRamwN2o5Cqv65KSOHKxgwoIaMOWr07NnTbAi30oERbYkInBGa2XGcM2TgusE9MqjYdmDu93SDtOEaoMu/N+LASPmzaFSBNxW5rc8h4mGXngQuRC4xMKsQdMeqweQMD8M1skzdDQ/5icqnHE1jmdl1j4Zjra5gEXl2zBH7GpPEwRB5LYshkwHgqUabY4adYlbuzGMPJDtbHBMDMwloNfA4LnF1PQWThkKu46bBxHAHGQXOA+gbF/CQA6SZIwfaiTstcvp2EEQ04hjhFkqOlWaEho72f2XcMl7btYevDc1EWQSyCVVJL7YbO9mIp3mOoRWIjErMJIMrBkQbgcxV43QPHqNGK70bMOo4QL28Sax8YaxFbEUxyQi5iPSwhqR1eNeDPfo5dBZ7ojSvzVWH4bIH/vpdwVJijKoGaZd1FAw13KSM0s94+T3k4921HNn+HtKYps29KSFnDUJ1qmk9+qoYamEzaeJTDRGIp8BvrNsDWOtbEQqkwKrbY+WMIfRvKBp7XbPu+XqcDlAcZf9acEFaF1syuAwdtGMGBlboq1iL34YdDDEPkZXyQVUtktAW5AbdtyGphrpFqJI7PGBtafSI+tTtcZptfl89Pavk5zyeYVkPzEDY06eEO3ES0+sQheq2Fo4D2MnbwR9a7OFugDIFIgI3vSxwPfpIF5m4oPx2Sd5qrM6M/R3haZb1Q4AQiSdQu0Dgzeg/j4VrwI96ntA27fDjCxaZ5Ykf2D2Gu7EKR2eEavevEE6c25kyIEEzp5nJOx/jSZb00JWnk5uxZGSjkfZYyYmo+B5wag7HCnAPTeQVSZEKSFEqsvFjJJ7PP1uJjsx/mwUQrTJKl6OBHLErBU27o4AyA24QmL/OxZI3BpGZHdFsbw6UdoRpzvBgnofKNaXUV/eJFURPgb2T5ENMwc/bczzvMw1An7TPIXaHjJltP6ehYi+4kr0uKrkYBYh6EON3WCM2HkMkACj8cgksIpIXxyOZZF9/e2Tg8RWmOMmoRmzuUnY3RwWaSdOJV0AH6i97DbX01rpUbD0WmvLC4A7vQAbOmDg62oJJvhV6ri8/n0KZglSPLO30SwqL7I57laVX08xqY4rtM2zvcXVp6ks3uSc/YQ8OhLgY3pRVjk05Do08NzXcOICsT0hIfFNcRyVYQdLgM1xxH0eC8DDVYaWGKdEWmfmzGZf+LDvFu7Kw7VZyTNbZIPWMLANfQs9bChE0MCNQls5qZHVGjJCtFeKRTynshtCAxHNaqI0/ycLbL1gMOGd5+RGBree0OGetbzeYIMz2dZx/NK9sxQqaNvBdTskh09rZMWemhOCJLmwp09u18s/FWEoEt6AU30qreSc5e7lMfaFnHsaEH5uVJKYaSj2EcVKteSi17AN1CBGJncu6OmQ8kelNQEc7yKId3RCqdMRRNtClT7LB+6wFWQyJ1dHCJSnxB72RwBvjBC4t4+PYmg1xWjwYRl1MLs3yE1MBBExge2wZ4J0x8NT52GY9ZpDuFLvu8M6+k/oXR8lnB3SGHedfNwRBKdjgqSMsBIebuvymEiiDJWSqw7W8mMJQ0nSSNZvy3mt1CNcMHwai1ykYsQblplnIlsKaDKq357Fs3AwJvOU9Q9DC79exCXcUziopy7V8joDARS/vFeV14s3ppAdEZJ1HVeG9+XqQfxqs7ayAz6lgp/abDAvO6ve07O2QwbcibHiiHkGsfz18WO0c2pXW0ri6a1FMrWin689sw5jYMRNCzMebrpPxCZZ2HmXgaYFnScSyWNmiIweUHjYj03M1MchBe6iHXZl4BtSLBT2ucZmHTs6pPuSixPsWghexHO95QInnR6C3koZZ3W+muB/Uxh2nHjJZjjmrs93OieAyOVcF7yKWj/XnmAKnJwHn5YP0bRQm8AikT+iB00UFxz6HjuoElYcGNHvtpbKxN79IfHkLg43M8SphBsXaJyRDzZrkPo1xKXhOlJrC9+zZWQ22Dp5ob3v1uirJCWlwHzTZyR6lZfYHd6XEtQg8M5GlYAIMZLWSC6eFWvJgeFInIFbV1qaugXHg3lyJICQE5+xEv8znxncCri/Zia+uRK8LhsaPCBBBXsEoeGfyDhd5aGWDLWo2q2o4FHrOsmc1rER94sTFG4kSyopDnYhGI6BXHoFnCEC4XbWM8Laew7TxklzMOBYT54cjgDjPSCjesGBpoNX/Mb0fSKAw1QVdBkfk8I/786oRGC6W60iSEtnJDIMNryMVGnYk7MmhGfJTaWGxXbaXi/Ichj2zzAlTgc2rh1EgAe/O1tVAvrgEa299kSKM8T98LB5o8psvq0xs86+0hSM18Ihy3cGQUWcSsSNwPKpFTMG0XIxXENB+AG96Ao9V7hqR5ZDOvp45m06MwQWjNVckrSHKMK5CNeXKkySPxIqP6raq9rddhLnGuADICyiWtPuEQN52Q5bGHuDTpCpkX7bLDHBQFJY03jqlZguhik3bV4st6Ng54WMSmwwJTTdNlnn2NpeODMYEast6MUQ5SI9l0rzk6wl0Z53XfNtNp4Zqq1TqnwFdghEcagBxHEI1e7eCPhvoVK86GWrEMk8mO23ex06FTACidr6tEWoHZMW8M0qtDpvEACEsUWux/1dl1fCCtkBBN07FfkQwwaY07O9Sf1tFhG2UT9ELF5cm9tp1gRnQ5yPFI02letV3Lmr9lTVpIJQCFM9/P+tf84BbO+orVXLTOSEvRnQmkJIubURRE9BwWQCtYZHN2bjqVFgEWxVn5PVxpt/lQfZhypbRc1zIIXPaZH2gN50mJAkvIpee2hINqSA+HGFdJUM31rOcJ6Yxf6VfLI+lc50bYvABrkwKiIw6DtFVaYt5jXEum3Kd22sNMPka6+JFWrRjY6QAIuYBShsZDhW7Q1Wzax3GknefBwp1nwEGGsgO41fP/5SHkUGliRMcbi5QVzyDjceph3/jLbR1amAUTSLrE5BQtsHZ1lF4ovAiOKjwF7fqR8iYEFq4lL1scmKo73afJYTtoxV2ebZg8peDY8roe5mmpdaDTwzrIq5iAFs8MnUNhsVjYG+476HQVrJlDMJ30wOZXBD4lr8FDowd6Uwt8nvkBLQAt6xn5TQnTRw+nUb5ZDYvsUHdXpHF2pVQ8tPDL/WsGOGd0DovX1bPYu03G/LemQ9D0IFQ18OKoZHyyD4lXGGsu2vLgiHh/SufCSdRfrHAWXJAk1jQui4D0hklkPcDQmU3abQJbi9nmosBgK3IgyZCHCCxKLkeFAcQh812GYbVQSSzBYzjQSGiNPUoudTJLX+Tpts6R2/HGIL2GenaMp9NwQLNSQoPoZjgHDGMBufCd0abVP6wzT9xGF6DUFu6wHsGB5XCSNwjZ6bSiwf0vVtjCPsSaig4aSN9a89nESkuxVp/seJUssU+AQmUiZu08zGC+Gem7mutKWrRtlkoXR3S8XTdLy6ROPzt6hJiUXg2h5FhTsY2iIP39ixsO2D9eUmyDFa6z3COZJfNBp9zgfFkdktajJZWxpQ/fTs0P04v9uaemheKDezgj6m3enY1YU8E9f8Sk0RwQNmGkl2IIVOaZbj2qGCAdmh5mzeqtYUJZ0jxZn9UlmGhjYwHRqdaViOVniE37Mo51pmVre6qafcgibx6DCE8AbzMOihQWtStCQwKSu5fZa9q5cZ1xLJVit7PBO1WtsdFbtJH4ynxZDrAAXVYlZINGppH/dngP40RdtV1VEwqnJHGGDO3XZ80di17JBa2dzz/00gFgHjmr2QcPhVm+YLD57HxlYxX1i3ftrRxu7D6La3090hJv6BFqlriN1E7FB+ogsosbCbMNOAARE0Wi7Vls0tUvzTD9A/cn4pii6ywJhhQOWSe8sx4hBZcIBdEBrQVdYD3ckM20S8x/m44dMKVtzLgqvpUTihBrKiZQo8js+cPoZdSLF9hp+CopB5vdZrwPHDsy0oT4YLVayEJncEOqzkLWcAPU5rd9Xx9OR8ZakGbR1epBduupnbZQkAUmEIdT5gpXyUin+/S+Yp68ikQyybbqluXhcphG0xVADhozPFyQlXk2PK/WrGc+nH0dtnm9Lem4wFmHLCMHyQjjLNaUDJkxgexq54VFtVEyPpeXGE5GzGHftH4URhf4wY8hY2Y9+Foklon3yiZAofEJ5HSqHm5YxL8+nFM6AvGQnrJZA9JbLbyLCcVmmEDNylnhVg/mO6w4+guwCDPMbQvwrtbEj2cTPazuc3nBEZfovEGkEsqa8xvjcEPl7bs30aGph5clxei1GcHPTnvgRVYLIZhAJt0JhBY1nw8pCCQ3BwhRUogO6bzizFbZ45sXGWVq1mx5MDkqdAklM9TX22X1EuJrX95jxbS1sMh2UElTFpg/VYk1tRccIH2OcQ+jivMmOKxWvC8rpz7VdJwhDzNqpsHSsGF4nhTgpod527UeUDFqqnuFyY/4mtdLX16ed3SIesgiez24DR5PqL7TZZ3tsTJIr8l9k+HqPeRaMYQIkcGyIaWTK09XGDF+xzL7QEwevjWfw9HkrNAScPicRI7zQaHS5SWtTx+jPEBkk5YahUElMIyvzvgEJtBsHA7HPdy5EsgufdfaGS0sg2SMTeauaRVZcms7hKTCa4Oj0yicfA10Q4zzfOFfC9Z9cFRrKesue1l3VdWzPPx+LaFQh1yjHjCXq1gVpO/yHhzomgsh85L0rOV0Xm0oAFczZucdgyXBiE61xVV0Q+O+q6SslrkdrB6+lXWDyDZoPjSvZPH211WOIzaQXoUhcSPoX0O4y+GkzkBnV2sj7xv/RVWB2hXoFgjY6bLKOV+BxdqyhBtSPu7Lm0MMdHD68AaPdlmEuFhxiNJdWJWaLbJgAnbgtQhUZgMsMM3zAXZaot/ZMbt00qk33eAvs7ZqCV/6vO4zT+tU+rzEfYxucLMplhfbrh48nMZiFogMKLXWoYQnxqvHmtwuxA45jCgQgHbW+po18egwNS6Q+hSqdFqXhGPLukYDzzenjJHj1SZssbef+YDieT5NauBscORB2tJudGddZXyVDNrnES2yTJpQbIWZ9NnyK4FecVRVFeuapwcbCNVyul11zlxLJ7ZZkny362p7H1EpLi7XlsaxC+duW+kGRAEnVjEp4x7leFhquT505wZrgkgADQc5IwzBKKYThbZtBlpPazghqtWcTj5nOafTq7UupsstqX6kZb1h1FYFONIdmB3QxIFmQ7llLaeWdBo+2TCcwxwP56YVFdm7mLId65GJeqy5rSCDt4ghSzw5PxgBMmeayo0q2srTmbnU7H3STecvQ73NRHIedbH1rdK1PrG826zLa2CD6tdhgQ2k3Pe3sj6cJuG1aNCZHWvXhAIgvSPSGKvhdAkIgxORMk3Xqes0n2RwO+vkXdnbPDmAJOvXqFp3lk1iWMuJRizA3MhBKx1nSjF7WkRuRrvE2bPcb0Qt0fmB8UKJDXwUAqNczvhmLMvjabotOiuSfxS/kha2X2AlpmVer5hyytM+uPDWI9sieaCfIQPTQNyr/Pm+pdXaQ3xYFGeZWOXhaTawKjShAJPewKHMi4GiMW/YdLrKlFtOmNQrU7tMmFnc0okX2Lil4OhwTVPWV6hD68MpDTvIwjwOi75/UuDny+vK+hmbhfcgctCcuG+QUHB80KodAt2j+1fOcXSG8PS66JkI6Sx9Bt1Dn6C1RPlqZo491Ktjf/zUmDiENN9uhr/RBi6l6fT6aRAvTWeWuQwMRGQjry5ybHbMUqHoCYWA9HIQhLLXHrw/Lbd0Mp1Oi9LNaDrroZ5puXFIzD2paeF8w5rMDd1YH86UIrTU9FgkFvd6pD6cEss8r3HoW1HFZpEH2KcCDZGEogSQHjs5LVL3RVA9XQg4Dk0LEoT+U1OyoXVZcw8Wz+XS9jjxdLq8udU7biCLe76uB0fEZWKZr/N6f25FMZFJt4z17vQ0VsBrY7ZCDzlQtga1dFpU4KYHV9CEiZm1K7dZeQ44cxiCI+EG0nzJ0/WQURQM2vm6rgdLLZLBmswKbRu3BSKLr89mG6tVKBQTkFph5fPGNKamrr46Cp286VljV1oWzA3nsuPJp8NS5nADaT4yGBsyz/N+WFxZpEMCW9UvtUVkVtaWwjphL8u8Cuv1TtNpnjlD5hKGHSWrPcHUZWqEQvhQH+KV6r8kLTFe5QwzDfM43OA0Xy2gXDMDq4W40tn4F5NaOFBIbTldsZ/53DahN5rIJFPCvEohbBhgAs7XvjgahflVAWPXAjwsLurO7J+anpEh6IYvr71dAnVKpKv7NwIj3a+M/7HMZR3moQWRsxWr0UHHCUUA6au0Q0uHWjalaE1x7xr6vZ1akJZb89Ihz51cFcVpza8ltWnS1YUXPbqHlU+HQwQTLaebyGxB2LxeZS8rEd4AfA5D2H9WI+zTdJnQlKsHXlZb4aDVza3uaUnOM2XvZml+9nMIGM+x1cUpbvN6aDZtiIYzzAWJzJsW2KVben09NXVBel4PK6yA1+ek5xlwDnRuZMc6Ru8ZrHD1ahqdcTy/jENP55nTfJubQ3pWcBfX2EbMkFrn62U5Qj3MVAOxRWMcyPywrtYctWGVjfKnDEChPK3KjKgSIy9ksV9tRn1mWgr+2XcmOypCO03lcIMxWKvXw0tQSufb7IOpRNr2+ZZ4TB9GYUUPA8nKqkxpOUNmNV/XM/tl0pFjGmCl84PWCeSAOcJldaw0+Lj3HfXmcxWGl+mLmge2GGlUFtdG3nZpT11aOsSmta+WZVMaGvg3IjMHn2a+zgoRRP4Js2EuZJMrsxnmMMiOV7AG0MB4/hktegg3TpOxv2yNKdHC4trairR8lwcFrj4JpWLmI/P1ed0lKHlV3dZVtiETUj9jNky5NcaSjUulhzu4KxqtVmTxaU/5dHtlkD7nYFe6Ke3iln1c26OYlgk8nCXpNyPi11HmvpfPLelZbu5S03RDh6u6WzawpHAbd53mwLfS8xwgWRV5Ly35VCdFxFzceS22tk0JW0dV2vmczXCiyOAaZC6yym1k9oA0elsSZl03WLB4AlprzYclN/WvWeGD7o4uSPNhwbF3RdwCabtFFYyXw74DbTxqpbnALtxR8xoVpLvAR9LEip8zi1zV2mbMUJtOC0JArTxbV3iN07CbOSrGNWCJaTlPw+HzEv8tl3ktW5f2JtLmsShx4OiSdPzVnVV/lfl6po9+P/3FRfX10WeXy8Pcv/D1dv7tpT8r8Mvpr15P63d+ffty+eC3H/3b/4/X9fv/8Zd9uf3hTZ+FeP7Vr/8E/re//hP43/76e4G/Hv7Et+e//rJ//OaPDt758PVhqeUxvL58wND89ng6L8v59DT+7gd/4KMkVO5zOb+/0B++6bv888twjR+Xc//qy5c7CZ9O8TF8/eCjeP1z4NHOj3e/Pk3+uyjemf/tnVR2TyndO8anMVA4P8VfXuQfw2e+Pi0eeDz9HN98Ds/rud1/9M8Cc2pTAbdQSsPTe6Jkg5/H3zGL8LcC/1zeP4ynpGNRpaCfzs9RBv43v+vvS0oZqUOPpH+MT2fyv79MnEEfEFhRUQSl/q6vJwMMCSTWlyBw+73AXbj7W3hMRrjX3uufg8Dxrr9M2h4mMwYSPQ5PJ9FTELgeFJh7oglEOEp2aR3fZVyO6hIz0P47gV96wnT/yyc5cJ9fwLQvQYYWV/gHhWNKpNAQguVLYrpjEPj94/2jwD2Bn6aJpCCclq96h4LJyT6SpNHW/48q/TTevrweZej6NE1T1nLVs8tQw10/TwnVq/6SHZf8GDghlqfTTxU414P9wzU9fXt+/n5KMtrxh/+GgfbL4+MT+njswn8S+EVID3e/fWKZ8o/n5+dvF5lTm56iwNkEPglFOk2np8enE2h/fjlpLcgwAi8TtWMCd918wpX4WV7ssj1VxU09TugiNIF/q9JPoOeOS8x7mOgbLs6A68kF5vNf5APfeVpNVVv8DQ3jJpNOjE/Ldwicj61wVYGlAUJu45nPAwqL8CXxUbWQ4g97+EVZLeOvRc+zCPEj0bBoPHxar33hE5zTojbt65kpXfZ4TkqBYWP9MnXrc0ylVeCfPHhCbuMxyYEA4eNJDv76J4GfEo63HJf4kXceVvi7EG6DwG6lv8rkh+ij2MzR9DIKTC21R17hvxWYP4vbOHHdIwVv8D3JUCsI/DuVfmGKBrh5w3Ng3oYI/CXxsgSVbpUgoxRDhs+eh0cg1C8hzqWnr9NhTMsE/s7WU24DEwpCSPNzERr01z8L/MQxxMLwZFziR34O+ZvfcxuMltn1LzKZ83L3sPzpnzD5L4sdWOgI1zIK/MJ8T3yVCDzFEFWm+y0vv/6k0ryDafqx0N0SP8mIkm9fv/58xuwC+u4C85DO7/JkekSQYuj5yLQ9/SexrXIIe6YkbcAHBT59eXy8oCNZPntOmd4JnHPFP3GzyUcCs4lOJ3WW38NNM7K5LMsyCUszBHUXsdrf7Y33ArMZM4GbVPAcEz1cahEXD2P/85cu4Z1KJx6IpCqd6wcCv3DNM33vVn701E/SX9YjCUTIy3MU2Kz0Fw413ql0a67SXdyTD/em4LM+IbCSRRR7/uJXpcFoRcvKHRofCPxkqj4GT7xKWSc3CWtrSB5cHxAa/Mlode06SSjII5cOClyrAvw9jnyy+7szS3zcajO31D5SaWjB48vLy/fmFvCXrVKVqJ3HHvyKAmfb0+/dkoSD0S2JV37S4ecHR9PIuYtEXa8X3QvPwkrxrfRDCoMWeHBd5f5yT3KqyjIt04Kudb3vRw4IJZbmHpK4SyXwgBGT0DGdNRn9epZdHQKPKlHal5aUr3dQpXvyMC3n0xfPeGVBiZ7knx4nrMtXE/j9Cn8F0Zso4aw3X2L44R/Pzy9PSViJcQ/zBrLQUvoRLbRsLYbL/EDkut8xh/Nw8nD59vz8/PLuNzLpwpMH93eywsvTRaoMuLdHLQtZ5ZdsiR+lT/ObPa42WOk8blLpDTo9PT6epIm33iUP+PA3YZYcEjiP2mUvywE0SashNsLUIENh+Pu+imOzfxSHcQqXQ2j5vVEeQs/RiT1P8asJddUxPdTLvpyDR/ucwPdeXl9fpe1KjhPJ7wAAG3ThyYoscDrrS6Zi4l6GSOtyZxJ5zFQAAOAihaN+h0uMAkvmdUzg36zwr59GUFZSg3uScHquaxQ7Z4RivzzdlO99ErskAr/AEj8GGXKIvL40a4eE8xggHm6nsL8/pVSPCEyUPxb4168LhZbnlE6+y8+Jx3h225572P8DGQFRiBh+cKcr5HhMRFkF5r8RJbVbF/nrCOKRoV/3IF6mKPCvL1OiTwssu+03Av/6fmq2IT+AadOwh/Fv3969izX3afjtV/zqpDL8GaYd7OnTO4j42/LpFf76o7++/L5O8O3pQyD++4/x9aKX+hG/+dsX+bf+87P8rFk9/op3f/sx/JJfP39czgsD8XcgO191hPJ//lcf/vWfwP8Dr/85gf+/AAAA//+GzayucVjbjwAAAABJRU5ErkJggg==;container=0;" vertex="1" parent="o8AhM5z9xb0QQ9GoazW1-27">
          <mxGeometry x="20" width="60" height="60" as="geometry" />
        </mxCell>
        <mxCell id="o8AhM5z9xb0QQ9GoazW1-30" value="" style="endArrow=none;html=1;rounded=0;exitX=1;exitY=0.5;exitDx=0;exitDy=0;" edge="1" parent="o8AhM5z9xb0QQ9GoazW1-8" source="o8AhM5z9xb0QQ9GoazW1-19">
          <mxGeometry width="50" height="50" relative="1" as="geometry">
            <mxPoint x="198.5" y="1117" as="sourcePoint" />
            <mxPoint x="219.5" y="1087" as="targetPoint" />
          </mxGeometry>
        </mxCell>
        <mxCell id="o8AhM5z9xb0QQ9GoazW1-31" value="1" style="ellipse;whiteSpace=wrap;html=1;aspect=fixed;strokeWidth=2;fontFamily=Tahoma;spacingBottom=4;spacingRight=2;strokeColor=#d3d3d3;container=0;" vertex="1" parent="o8AhM5z9xb0QQ9GoazW1-8">
          <mxGeometry x="395.5" y="654" width="20" height="20" as="geometry" />
        </mxCell>
        <mxCell id="o8AhM5z9xb0QQ9GoazW1-32" value="" style="curved=1;endArrow=none;html=1;rounded=0;startArrow=classic;startFill=1;" edge="1" parent="o8AhM5z9xb0QQ9GoazW1-8" source="o8AhM5z9xb0QQ9GoazW1-15" target="o8AhM5z9xb0QQ9GoazW1-31">
          <mxGeometry width="50" height="50" relative="1" as="geometry">
            <mxPoint x="144.57600000000002" y="869.4759999999997" as="sourcePoint" />
            <mxPoint x="308.5" y="2098" as="targetPoint" />
            <Array as="points">
              <mxPoint x="198.5" y="644" />
            </Array>
          </mxGeometry>
        </mxCell>
        <mxCell id="o8AhM5z9xb0QQ9GoazW1-33" value="1" style="ellipse;whiteSpace=wrap;html=1;aspect=fixed;strokeWidth=2;fontFamily=Tahoma;spacingBottom=4;spacingRight=2;strokeColor=#d3d3d3;container=0;" vertex="1" parent="o8AhM5z9xb0QQ9GoazW1-8">
          <mxGeometry x="395.5" y="654" width="20" height="20" as="geometry" />
        </mxCell>
        <mxCell id="o8AhM5z9xb0QQ9GoazW1-34" value="" style="curved=1;endArrow=none;html=1;rounded=0;startArrow=classic;startFill=1;" edge="1" parent="o8AhM5z9xb0QQ9GoazW1-8" source="o8AhM5z9xb0QQ9GoazW1-17" target="o8AhM5z9xb0QQ9GoazW1-33">
          <mxGeometry width="50" height="50" relative="1" as="geometry">
            <mxPoint x="373.19000000000005" y="866.5992000000001" as="sourcePoint" />
            <mxPoint x="372.5" y="2114" as="targetPoint" />
            <Array as="points">
              <mxPoint x="373.5" y="677" />
            </Array>
          </mxGeometry>
        </mxCell>
        <mxCell id="o8AhM5z9xb0QQ9GoazW1-204" value="2" style="ellipse;whiteSpace=wrap;html=1;aspect=fixed;strokeWidth=2;fontFamily=Tahoma;spacingBottom=4;spacingRight=2;strokeColor=#d3d3d3;container=0;" vertex="1" parent="o8AhM5z9xb0QQ9GoazW1-8">
          <mxGeometry x="432" y="617" width="20" height="20" as="geometry" />
        </mxCell>
        <mxCell id="o8AhM5z9xb0QQ9GoazW1-35" value="" style="rounded=1;whiteSpace=wrap;html=1;container=0;" vertex="1" parent="1">
          <mxGeometry x="2032.5" y="-3445" width="169" height="122" as="geometry" />
        </mxCell>
        <mxCell id="o8AhM5z9xb0QQ9GoazW1-36" value="Source &lt;br&gt;Code" style="sketch=0;points=[[0,0,0],[0.25,0,0],[0.5,0,0],[0.75,0,0],[1,0,0],[1,0.25,0],[1,0.5,0],[1,0.75,0],[1,1,0],[0.75,1,0],[0.5,1,0],[0.25,1,0],[0,1,0],[0,0.75,0],[0,0.5,0],[0,0.25,0]];rounded=1;absoluteArcSize=1;arcSize=2;html=1;strokeColor=none;gradientColor=none;shadow=0;dashed=0;fontSize=12;fontColor=#9E9E9E;align=left;verticalAlign=top;spacing=10;spacingTop=-4;whiteSpace=wrap;fillColor=#F3E5F5;container=0;" vertex="1" parent="1">
          <mxGeometry x="2049.5" y="-2835" width="401" height="71" as="geometry" />
        </mxCell>
        <mxCell id="o8AhM5z9xb0QQ9GoazW1-37" value="Web&lt;br&gt;개발자" style="text;html=1;strokeColor=none;fillColor=none;align=center;verticalAlign=middle;whiteSpace=wrap;rounded=0;container=0;" vertex="1" parent="1">
          <mxGeometry x="2092.41" y="-2697" width="78.79" height="30" as="geometry" />
        </mxCell>
        <mxCell id="o8AhM5z9xb0QQ9GoazW1-38" value="Embedded&lt;br&gt;개발자" style="text;html=1;strokeColor=none;fillColor=none;align=center;verticalAlign=middle;whiteSpace=wrap;rounded=0;container=0;" vertex="1" parent="1">
          <mxGeometry x="2193.71" y="-2697" width="104.18" height="30" as="geometry" />
        </mxCell>
        <mxCell id="o8AhM5z9xb0QQ9GoazW1-39" value="데이터&lt;br&gt;분석가" style="text;html=1;strokeColor=none;fillColor=none;align=center;verticalAlign=middle;whiteSpace=wrap;rounded=0;container=0;" vertex="1" parent="1">
          <mxGeometry x="2312.5" y="-2697" width="104.18" height="30" as="geometry" />
        </mxCell>
        <mxCell id="o8AhM5z9xb0QQ9GoazW1-40" value="" style="rounded=0;whiteSpace=wrap;html=1;rotation=90;dashed=1;container=0;" vertex="1" parent="1">
          <mxGeometry x="3412.25" y="-2860.75" width="154" height="8.5" as="geometry" />
        </mxCell>
        <mxCell id="o8AhM5z9xb0QQ9GoazW1-41" value="" style="shape=actor;whiteSpace=wrap;html=1;container=0;" vertex="1" parent="1">
          <mxGeometry x="2111.8" y="-2763" width="40" height="60" as="geometry" />
        </mxCell>
        <mxCell id="o8AhM5z9xb0QQ9GoazW1-42" value="" style="shape=actor;whiteSpace=wrap;html=1;container=0;" vertex="1" parent="1">
          <mxGeometry x="2344.59" y="-2763" width="40" height="60" as="geometry" />
        </mxCell>
        <mxCell id="o8AhM5z9xb0QQ9GoazW1-43" value="" style="shape=actor;whiteSpace=wrap;html=1;container=0;" vertex="1" parent="1">
          <mxGeometry x="2225.8" y="-2763" width="40" height="60" as="geometry" />
        </mxCell>
        <mxCell id="o8AhM5z9xb0QQ9GoazW1-44" value="" style="endArrow=classic;html=1;rounded=0;exitX=0.5;exitY=0;exitDx=0;exitDy=0;startArrow=none;" edge="1" parent="1" source="o8AhM5z9xb0QQ9GoazW1-48">
          <mxGeometry width="50" height="50" relative="1" as="geometry">
            <mxPoint x="2642.5" y="-2940" as="sourcePoint" />
            <mxPoint x="2130.5" y="-2830" as="targetPoint" />
          </mxGeometry>
        </mxCell>
        <mxCell id="o8AhM5z9xb0QQ9GoazW1-45" value="" style="endArrow=classic;html=1;rounded=0;exitX=0.5;exitY=0;exitDx=0;exitDy=0;startArrow=none;" edge="1" parent="1" source="o8AhM5z9xb0QQ9GoazW1-50">
          <mxGeometry width="50" height="50" relative="1" as="geometry">
            <mxPoint x="2642.5" y="-2662" as="sourcePoint" />
            <mxPoint x="2245.8" y="-2830" as="targetPoint" />
          </mxGeometry>
        </mxCell>
        <mxCell id="o8AhM5z9xb0QQ9GoazW1-46" value="" style="endArrow=classic;html=1;rounded=0;exitX=0.5;exitY=0;exitDx=0;exitDy=0;startArrow=none;" edge="1" parent="1" source="o8AhM5z9xb0QQ9GoazW1-52">
          <mxGeometry width="50" height="50" relative="1" as="geometry">
            <mxPoint x="2642.5" y="-2662" as="sourcePoint" />
            <mxPoint x="2364.5899999999997" y="-2829.6000000000004" as="targetPoint" />
          </mxGeometry>
        </mxCell>
        <mxCell id="o8AhM5z9xb0QQ9GoazW1-47" value="" style="endArrow=none;html=1;rounded=0;exitX=0.5;exitY=0;exitDx=0;exitDy=0;" edge="1" parent="1" source="o8AhM5z9xb0QQ9GoazW1-41" target="o8AhM5z9xb0QQ9GoazW1-48">
          <mxGeometry width="50" height="50" relative="1" as="geometry">
            <mxPoint x="2131.5" y="-2763" as="sourcePoint" />
            <mxPoint x="2130.5" y="-2830" as="targetPoint" />
          </mxGeometry>
        </mxCell>
        <mxCell id="o8AhM5z9xb0QQ9GoazW1-48" value="" style="shape=image;html=1;verticalAlign=top;verticalLabelPosition=bottom;labelBackgroundColor=#ffffff;imageAspect=0;aspect=fixed;image=https://cdn4.iconfinder.com/data/icons/essential-3/32/356-Document_Code-128.png;container=0;" vertex="1" parent="1">
          <mxGeometry x="2116.5" y="-2805" width="28" height="28" as="geometry" />
        </mxCell>
        <mxCell id="o8AhM5z9xb0QQ9GoazW1-49" value="" style="endArrow=none;html=1;rounded=0;exitX=0.5;exitY=0;exitDx=0;exitDy=0;" edge="1" parent="1" source="o8AhM5z9xb0QQ9GoazW1-43" target="o8AhM5z9xb0QQ9GoazW1-50">
          <mxGeometry width="50" height="50" relative="1" as="geometry">
            <mxPoint x="2245.5" y="-2763" as="sourcePoint" />
            <mxPoint x="2245.5" y="-2830" as="targetPoint" />
          </mxGeometry>
        </mxCell>
        <mxCell id="o8AhM5z9xb0QQ9GoazW1-50" value="" style="shape=image;html=1;verticalAlign=top;verticalLabelPosition=bottom;labelBackgroundColor=#ffffff;imageAspect=0;aspect=fixed;image=https://cdn4.iconfinder.com/data/icons/essential-3/32/356-Document_Code-128.png;container=0;" vertex="1" parent="1">
          <mxGeometry x="2231.8" y="-2805" width="28" height="28" as="geometry" />
        </mxCell>
        <mxCell id="o8AhM5z9xb0QQ9GoazW1-51" value="" style="endArrow=none;html=1;rounded=0;exitX=0.5;exitY=0;exitDx=0;exitDy=0;" edge="1" parent="1" source="o8AhM5z9xb0QQ9GoazW1-42" target="o8AhM5z9xb0QQ9GoazW1-52">
          <mxGeometry width="50" height="50" relative="1" as="geometry">
            <mxPoint x="2364.5" y="-2763" as="sourcePoint" />
            <mxPoint x="2364.5" y="-2830" as="targetPoint" />
          </mxGeometry>
        </mxCell>
        <mxCell id="o8AhM5z9xb0QQ9GoazW1-52" value="" style="shape=image;html=1;verticalAlign=top;verticalLabelPosition=bottom;labelBackgroundColor=#ffffff;imageAspect=0;aspect=fixed;image=https://cdn4.iconfinder.com/data/icons/essential-3/32/356-Document_Code-128.png;container=0;" vertex="1" parent="1">
          <mxGeometry x="2350.59" y="-2805" width="28" height="28" as="geometry" />
        </mxCell>
        <mxCell id="o8AhM5z9xb0QQ9GoazW1-54" value="" style="curved=1;endArrow=classic;html=1;rounded=0;strokeColor=#c91818;strokeWidth=3;" edge="1" parent="1" source="o8AhM5z9xb0QQ9GoazW1-90">
          <mxGeometry width="50" height="50" relative="1" as="geometry">
            <mxPoint x="2418.5" y="-3154" as="sourcePoint" />
            <mxPoint x="2868.58" y="-3491.0441824606496" as="targetPoint" />
            <Array as="points">
              <mxPoint x="2392.5" y="-3290" />
              <mxPoint x="2447.5" y="-3271" />
              <mxPoint x="2447.5" y="-3342" />
              <mxPoint x="2522.5" y="-3392" />
              <mxPoint x="2639.5" y="-3537" />
            </Array>
          </mxGeometry>
        </mxCell>
        <mxCell id="o8AhM5z9xb0QQ9GoazW1-55" value="" style="endArrow=classic;html=1;rounded=0;strokeColor=#1a84c7;strokeWidth=2;" edge="1" parent="1">
          <mxGeometry width="50" height="50" relative="1" as="geometry">
            <mxPoint x="2049.5" y="-3390.08" as="sourcePoint" />
            <mxPoint x="2125.5" y="-3390.08" as="targetPoint" />
          </mxGeometry>
        </mxCell>
        <mxCell id="o8AhM5z9xb0QQ9GoazW1-56" value="&lt;b style=&quot;font-size: 9px;&quot;&gt;&lt;font style=&quot;font-size: 9px;&quot;&gt;WAF&lt;br&gt;(웹 방화벽)&lt;br&gt;&lt;/font&gt;&lt;/b&gt;" style="text;html=1;strokeColor=none;fillColor=none;align=center;verticalAlign=middle;whiteSpace=wrap;rounded=0;container=0;" vertex="1" parent="1">
          <mxGeometry x="2956.76" y="-3335" width="71.02" height="21.5" as="geometry" />
        </mxCell>
        <mxCell id="o8AhM5z9xb0QQ9GoazW1-57" value="" style="curved=1;endArrow=classic;html=1;rounded=0;strokeColor=#c91818;strokeWidth=3;" edge="1" parent="1" target="o8AhM5z9xb0QQ9GoazW1-147">
          <mxGeometry width="50" height="50" relative="1" as="geometry">
            <mxPoint x="2868.5" y="-3468" as="sourcePoint" />
            <mxPoint x="2927.5" y="-3406" as="targetPoint" />
            <Array as="points">
              <mxPoint x="2825.5" y="-3435" />
              <mxPoint x="2722.5" y="-3414" />
              <mxPoint x="2722.5" y="-3400" />
            </Array>
          </mxGeometry>
        </mxCell>
        <mxCell id="o8AhM5z9xb0QQ9GoazW1-58" value="" style="curved=1;endArrow=classic;html=1;rounded=0;strokeColor=#c91818;strokeWidth=3;" edge="1" parent="1" target="o8AhM5z9xb0QQ9GoazW1-149">
          <mxGeometry width="50" height="50" relative="1" as="geometry">
            <mxPoint x="2868.58" y="-3468.61420445811" as="sourcePoint" />
            <mxPoint x="2754.58" y="-3395" as="targetPoint" />
            <Array as="points">
              <mxPoint x="2836.5" y="-3439" />
              <mxPoint x="2712.5" y="-3412" />
              <mxPoint x="2709.5" y="-3369" />
              <mxPoint x="2726.5" y="-3337" />
            </Array>
          </mxGeometry>
        </mxCell>
        <mxCell id="o8AhM5z9xb0QQ9GoazW1-59" value="Transit&lt;br&gt;Gateway" style="sketch=0;outlineConnect=0;fontColor=#232F3E;gradientColor=none;strokeColor=#232F3E;fillColor=#ffffff;dashed=0;verticalLabelPosition=bottom;verticalAlign=top;align=center;html=1;fontSize=12;fontStyle=0;aspect=fixed;shape=mxgraph.aws4.resourceIcon;resIcon=mxgraph.aws4.customer_gateway;container=0;" vertex="1" parent="1">
          <mxGeometry x="2967.5" y="-3244" width="29" height="29" as="geometry" />
        </mxCell>
        <mxCell id="o8AhM5z9xb0QQ9GoazW1-61" value="" style="curved=1;endArrow=classic;html=1;rounded=0;strokeColor=#157fc1;strokeWidth=3;" edge="1" parent="1" source="o8AhM5z9xb0QQ9GoazW1-160" target="o8AhM5z9xb0QQ9GoazW1-136">
          <mxGeometry width="50" height="50" relative="1" as="geometry">
            <mxPoint x="2464.5" y="-2859.0929791271346" as="sourcePoint" />
            <mxPoint x="2557.5" y="-3021" as="targetPoint" />
            <Array as="points">
              <mxPoint x="2517.5" y="-2878" />
              <mxPoint x="2517.5" y="-2929" />
              <mxPoint x="2522.5" y="-2974" />
              <mxPoint x="2534.5" y="-3002" />
              <mxPoint x="2531.5" y="-3047" />
            </Array>
          </mxGeometry>
        </mxCell>
        <mxCell id="o8AhM5z9xb0QQ9GoazW1-64" value="CI/CD Pipeline (20개)" style="swimlane;whiteSpace=wrap;html=1;fillColor=#e1e0e0;fontColor=#333333;strokeColor=#666666;container=0;" vertex="1" parent="1">
          <mxGeometry x="3348.5" y="-3114" width="157" height="639" as="geometry" />
        </mxCell>
        <mxCell id="o8AhM5z9xb0QQ9GoazW1-66" value="&lt;font color=&quot;#0040ff&quot;&gt;배포/&lt;br&gt;Interface&lt;/font&gt;" style="rounded=1;whiteSpace=wrap;html=1;fillColor=#dae8fc;strokeColor=#6c8ebf;container=0;" vertex="1" parent="1">
          <mxGeometry x="3365.6800000000003" y="-2541" width="84" height="42" as="geometry" />
        </mxCell>
        <mxCell id="o8AhM5z9xb0QQ9GoazW1-67" value="&lt;font color=&quot;#0011ff&quot;&gt;특수&lt;br&gt;분석&lt;/font&gt;" style="rounded=1;whiteSpace=wrap;html=1;fillColor=#dae8fc;strokeColor=#6c8ebf;container=0;" vertex="1" parent="1">
          <mxGeometry x="3365.6800000000003" y="-2665" width="84" height="42" as="geometry" />
        </mxCell>
        <mxCell id="o8AhM5z9xb0QQ9GoazW1-68" value="" style="endArrow=classic;html=1;rounded=0;entryX=0.5;entryY=0;entryDx=0;entryDy=0;exitX=0.5;exitY=1;exitDx=0;exitDy=0;" edge="1" parent="1" source="o8AhM5z9xb0QQ9GoazW1-67" target="o8AhM5z9xb0QQ9GoazW1-66">
          <mxGeometry width="50" height="50" relative="1" as="geometry">
            <mxPoint x="3407.5" y="-2768" as="sourcePoint" />
            <mxPoint x="3454.36" y="-2773" as="targetPoint" />
          </mxGeometry>
        </mxCell>
        <mxCell id="o8AhM5z9xb0QQ9GoazW1-69" value="&lt;font color=&quot;#0011ff&quot;&gt;정적/동적&lt;br&gt;Test&lt;/font&gt;" style="rounded=1;whiteSpace=wrap;html=1;fillColor=#dae8fc;strokeColor=#6c8ebf;container=0;" vertex="1" parent="1">
          <mxGeometry x="3365.6800000000003" y="-2776" width="84" height="42" as="geometry" />
        </mxCell>
        <mxCell id="o8AhM5z9xb0QQ9GoazW1-70" value="" style="endArrow=classic;html=1;rounded=0;exitX=0.5;exitY=1;exitDx=0;exitDy=0;entryX=0.5;entryY=0;entryDx=0;entryDy=0;" edge="1" parent="1" source="o8AhM5z9xb0QQ9GoazW1-69" target="o8AhM5z9xb0QQ9GoazW1-67">
          <mxGeometry width="50" height="50" relative="1" as="geometry">
            <mxPoint x="3454.36" y="-2859" as="sourcePoint" />
            <mxPoint x="3454.36" y="-2842" as="targetPoint" />
          </mxGeometry>
        </mxCell>
        <mxCell id="o8AhM5z9xb0QQ9GoazW1-71" value="&lt;font color=&quot;#0040ff&quot;&gt;Build&lt;/font&gt;" style="rounded=1;whiteSpace=wrap;html=1;fillColor=#dae8fc;strokeColor=#6c8ebf;container=0;" vertex="1" parent="1">
          <mxGeometry x="3365.6800000000003" y="-2909" width="84" height="42" as="geometry" />
        </mxCell>
        <mxCell id="o8AhM5z9xb0QQ9GoazW1-72" value="" style="endArrow=classic;html=1;rounded=0;exitX=0.5;exitY=1;exitDx=0;exitDy=0;entryX=0.5;entryY=0;entryDx=0;entryDy=0;" edge="1" parent="1" source="o8AhM5z9xb0QQ9GoazW1-71" target="o8AhM5z9xb0QQ9GoazW1-69">
          <mxGeometry width="50" height="50" relative="1" as="geometry">
            <mxPoint x="3454.36" y="-2917" as="sourcePoint" />
            <mxPoint x="3454.36" y="-2900" as="targetPoint" />
          </mxGeometry>
        </mxCell>
        <mxCell id="o8AhM5z9xb0QQ9GoazW1-73" value="&lt;font color=&quot;#2b00ff&quot;&gt;Source&lt;br&gt;Check&lt;/font&gt;" style="rounded=1;whiteSpace=wrap;html=1;fillColor=#dae8fc;strokeColor=#6c8ebf;container=0;" vertex="1" parent="1">
          <mxGeometry x="3365.6800000000003" y="-3034" width="84" height="42" as="geometry" />
        </mxCell>
        <mxCell id="o8AhM5z9xb0QQ9GoazW1-74" value="" style="endArrow=classic;html=1;rounded=0;exitX=0.5;exitY=1;exitDx=0;exitDy=0;entryX=0.5;entryY=0;entryDx=0;entryDy=0;" edge="1" parent="1" source="o8AhM5z9xb0QQ9GoazW1-73" target="o8AhM5z9xb0QQ9GoazW1-71">
          <mxGeometry width="50" height="50" relative="1" as="geometry">
            <mxPoint x="3446.5" y="-2940" as="sourcePoint" />
            <mxPoint x="3496.5" y="-2990" as="targetPoint" />
          </mxGeometry>
        </mxCell>
        <mxCell id="o8AhM5z9xb0QQ9GoazW1-75" value="" style="shape=flexArrow;endArrow=classic;html=1;rounded=0;endWidth=3.7096774193548385;endSize=6.0919354838709685;entryX=0.879;entryY=0.559;entryDx=0;entryDy=0;entryPerimeter=0;" edge="1" parent="1">
          <mxGeometry width="50" height="50" relative="1" as="geometry">
            <mxPoint x="3460.5" y="-3034" as="sourcePoint" />
            <mxPoint x="3460.813" y="-2940.386" as="targetPoint" />
          </mxGeometry>
        </mxCell>
        <mxCell id="o8AhM5z9xb0QQ9GoazW1-76" value="32" style="edgeLabel;html=1;align=center;verticalAlign=middle;resizable=0;points=[];container=0;" vertex="1" connectable="0" parent="o8AhM5z9xb0QQ9GoazW1-75">
          <mxGeometry x="0.0805" y="-1" relative="1" as="geometry">
            <mxPoint as="offset" />
          </mxGeometry>
        </mxCell>
        <mxCell id="o8AhM5z9xb0QQ9GoazW1-77" value="" style="shape=flexArrow;endArrow=classic;html=1;rounded=0;endWidth=3.7096774193548385;endSize=6.0919354838709685;" edge="1" parent="1">
          <mxGeometry width="50" height="50" relative="1" as="geometry">
            <mxPoint x="3474.5" y="-3034" as="sourcePoint" />
            <mxPoint x="3472.5" y="-2496" as="targetPoint" />
          </mxGeometry>
        </mxCell>
        <mxCell id="o8AhM5z9xb0QQ9GoazW1-78" value="92" style="edgeLabel;html=1;align=center;verticalAlign=middle;resizable=0;points=[];container=0;" vertex="1" connectable="0" parent="o8AhM5z9xb0QQ9GoazW1-77">
          <mxGeometry x="-0.5935" y="-2" relative="1" as="geometry">
            <mxPoint as="offset" />
          </mxGeometry>
        </mxCell>
        <mxCell id="o8AhM5z9xb0QQ9GoazW1-79" value="" style="shape=flexArrow;endArrow=classic;html=1;rounded=0;endWidth=3.7096774193548385;endSize=6.0919354838709685;" edge="1" parent="1">
          <mxGeometry width="50" height="50" relative="1" as="geometry">
            <mxPoint x="3488.5" y="-3034" as="sourcePoint" />
            <mxPoint x="3488.5" y="-2936" as="targetPoint" />
          </mxGeometry>
        </mxCell>
        <mxCell id="o8AhM5z9xb0QQ9GoazW1-80" value="4" style="edgeLabel;html=1;align=center;verticalAlign=middle;resizable=0;points=[];container=0;" vertex="1" connectable="0" parent="o8AhM5z9xb0QQ9GoazW1-79">
          <mxGeometry x="0.3937" y="1" relative="1" as="geometry">
            <mxPoint as="offset" />
          </mxGeometry>
        </mxCell>
        <mxCell id="o8AhM5z9xb0QQ9GoazW1-81" value="" style="shape=flexArrow;endArrow=classic;html=1;rounded=0;endWidth=3.7096774193548385;endSize=6.0919354838709685;" edge="1" parent="1">
          <mxGeometry width="50" height="50" relative="1" as="geometry">
            <mxPoint x="3490.5" y="-2779" as="sourcePoint" />
            <mxPoint x="3489.5" y="-2496" as="targetPoint" />
          </mxGeometry>
        </mxCell>
        <mxCell id="o8AhM5z9xb0QQ9GoazW1-82" value="&lt;b&gt;Parameter&lt;br&gt;(3개)&lt;/b&gt;" style="text;html=1;strokeColor=none;fillColor=none;align=center;verticalAlign=middle;whiteSpace=wrap;rounded=0;container=0;" vertex="1" parent="1">
          <mxGeometry x="3426.5" y="-3069" width="92" height="30" as="geometry" />
        </mxCell>
        <mxCell id="o8AhM5z9xb0QQ9GoazW1-83" value="&lt;b&gt;Project&lt;br&gt;(132개)&lt;br&gt;&lt;/b&gt;" style="text;html=1;strokeColor=none;fillColor=none;align=center;verticalAlign=middle;whiteSpace=wrap;rounded=0;container=0;" vertex="1" parent="1">
          <mxGeometry x="3394.5" y="-2824.5" width="92" height="34" as="geometry" />
        </mxCell>
        <mxCell id="o8AhM5z9xb0QQ9GoazW1-84" value="" style="sketch=0;outlineConnect=0;fontColor=#232F3E;gradientColor=none;fillColor=#4D27AA;strokeColor=none;dashed=0;verticalLabelPosition=bottom;verticalAlign=top;align=center;html=1;fontSize=12;fontStyle=0;aspect=fixed;pointerEvents=1;shape=mxgraph.aws4.network_load_balancer;container=0;" vertex="1" parent="1">
          <mxGeometry x="2768.5" y="-3111" width="34" height="34" as="geometry" />
        </mxCell>
        <mxCell id="o8AhM5z9xb0QQ9GoazW1-85" value="&lt;b&gt;&lt;font style=&quot;font-size: 10px;&quot;&gt;Network&lt;br&gt;Load Balancer&lt;br&gt;&lt;/font&gt;&lt;/b&gt;" style="text;html=1;strokeColor=none;fillColor=none;align=center;verticalAlign=middle;whiteSpace=wrap;rounded=0;container=0;" vertex="1" parent="1">
          <mxGeometry x="2747.0299999999997" y="-3074" width="76.94" height="21.5" as="geometry" />
        </mxCell>
        <mxCell id="o8AhM5z9xb0QQ9GoazW1-86" value="" style="sketch=0;outlineConnect=0;fontColor=#232F3E;gradientColor=none;fillColor=#4D27AA;strokeColor=none;dashed=0;verticalLabelPosition=bottom;verticalAlign=top;align=center;html=1;fontSize=12;fontStyle=0;aspect=fixed;pointerEvents=1;shape=mxgraph.aws4.application_load_balancer;container=0;" vertex="1" parent="1">
          <mxGeometry x="2849.4700000000003" y="-3112" width="35" height="35" as="geometry" />
        </mxCell>
        <mxCell id="o8AhM5z9xb0QQ9GoazW1-87" value="&lt;b&gt;&lt;font style=&quot;font-size: 10px;&quot;&gt;Application&lt;br&gt;Load Balancer&lt;br&gt;&lt;/font&gt;&lt;/b&gt;" style="text;html=1;strokeColor=none;fillColor=none;align=center;verticalAlign=middle;whiteSpace=wrap;rounded=0;container=0;" vertex="1" parent="1">
          <mxGeometry x="2828.5" y="-3075" width="76.94" height="21.5" as="geometry" />
        </mxCell>
        <mxCell id="o8AhM5z9xb0QQ9GoazW1-90" value="&lt;b&gt;Internet (사외)&lt;/b&gt;" style="sketch=0;outlineConnect=0;fontColor=#232F3E;gradientColor=none;strokeColor=#232F3E;fillColor=#ffffff;dashed=0;verticalLabelPosition=bottom;verticalAlign=top;align=center;html=1;fontSize=12;fontStyle=0;aspect=fixed;shape=mxgraph.aws4.resourceIcon;resIcon=mxgraph.aws4.internet;container=0;" vertex="1" parent="1">
          <mxGeometry x="2294.6800000000003" y="-3269" width="60" height="60" as="geometry" />
        </mxCell>
        <mxCell id="o8AhM5z9xb0QQ9GoazW1-91" value="" style="curved=1;endArrow=classic;html=1;rounded=0;strokeColor=#c91818;strokeWidth=3;" edge="1" parent="1" source="o8AhM5z9xb0QQ9GoazW1-15">
          <mxGeometry width="50" height="50" relative="1" as="geometry">
            <mxPoint x="2161.5" y="-2943" as="sourcePoint" />
            <mxPoint x="2287.5" y="-3217" as="targetPoint" />
            <Array as="points">
              <mxPoint x="2178.5" y="-2996.5" />
              <mxPoint x="2190.5" y="-3060" />
              <mxPoint x="2190.5" y="-3131" />
              <mxPoint x="2246.5" y="-3150" />
            </Array>
          </mxGeometry>
        </mxCell>
        <mxCell id="o8AhM5z9xb0QQ9GoazW1-92" value="&lt;b style=&quot;font-size: 9px;&quot;&gt;Build, Compile을 위한 Library Update 등&lt;br&gt;&lt;/b&gt;" style="text;html=1;strokeColor=none;fillColor=none;align=center;verticalAlign=middle;whiteSpace=wrap;rounded=0;fontStyle=2;fontColor=#8977fa;container=0;" vertex="1" parent="1">
          <mxGeometry x="2350.6800000000003" y="-3250" width="111.82" height="30" as="geometry" />
        </mxCell>
        <mxCell id="o8AhM5z9xb0QQ9GoazW1-93" value="" style="curved=1;endArrow=classic;html=1;rounded=0;strokeColor=#c91818;strokeWidth=3;exitX=0.693;exitY=-0.049;exitDx=0;exitDy=0;exitPerimeter=0;" edge="1" parent="1" source="o8AhM5z9xb0QQ9GoazW1-16">
          <mxGeometry width="50" height="50" relative="1" as="geometry">
            <mxPoint x="2255.14598540146" y="-2941" as="sourcePoint" />
            <mxPoint x="2323.5" y="-3178" as="targetPoint" />
            <Array as="points">
              <mxPoint x="2255.5" y="-2989.5" />
              <mxPoint x="2298.5" y="-3048" />
              <mxPoint x="2267.5" y="-3124" />
              <mxPoint x="2323.5" y="-3143" />
            </Array>
          </mxGeometry>
        </mxCell>
        <mxCell id="o8AhM5z9xb0QQ9GoazW1-94" value="" style="curved=1;endArrow=classic;html=1;rounded=0;strokeColor=#c91818;strokeWidth=3;exitX=0.633;exitY=0.008;exitDx=0;exitDy=0;exitPerimeter=0;" edge="1" parent="1" source="o8AhM5z9xb0QQ9GoazW1-17">
          <mxGeometry width="50" height="50" relative="1" as="geometry">
            <mxPoint x="2390.5" y="-2943" as="sourcePoint" />
            <mxPoint x="2372.5" y="-3197" as="targetPoint" />
            <Array as="points">
              <mxPoint x="2380.5" y="-2990.5" />
              <mxPoint x="2423.5" y="-3049" />
              <mxPoint x="2392.5" y="-3125" />
              <mxPoint x="2438.5" y="-3144" />
            </Array>
          </mxGeometry>
        </mxCell>
        <mxCell id="o8AhM5z9xb0QQ9GoazW1-95" value="" style="endArrow=classic;html=1;rounded=0;strokeWidth=2;" edge="1" parent="1">
          <mxGeometry width="50" height="50" relative="1" as="geometry">
            <mxPoint x="2049.5" y="-3424" as="sourcePoint" />
            <mxPoint x="2125.5" y="-3424" as="targetPoint" />
          </mxGeometry>
        </mxCell>
        <mxCell id="o8AhM5z9xb0QQ9GoazW1-96" value="" style="endArrow=classic;html=1;rounded=0;strokeColor=#cb1a1a;strokeWidth=2;" edge="1" parent="1">
          <mxGeometry width="50" height="50" relative="1" as="geometry">
            <mxPoint x="2049.5" y="-3406" as="sourcePoint" />
            <mxPoint x="2125.5" y="-3406" as="targetPoint" />
          </mxGeometry>
        </mxCell>
        <mxCell id="o8AhM5z9xb0QQ9GoazW1-97" value="데이터 Flow" style="text;html=1;strokeColor=none;fillColor=none;align=center;verticalAlign=middle;whiteSpace=wrap;rounded=0;container=0;" vertex="1" parent="1">
          <mxGeometry x="2115.5" y="-3440" width="92" height="34" as="geometry" />
        </mxCell>
        <mxCell id="o8AhM5z9xb0QQ9GoazW1-98" value="사외" style="text;html=1;strokeColor=none;fillColor=none;align=center;verticalAlign=middle;whiteSpace=wrap;rounded=0;container=0;" vertex="1" parent="1">
          <mxGeometry x="2109.5" y="-3420.08" width="92" height="34" as="geometry" />
        </mxCell>
        <mxCell id="o8AhM5z9xb0QQ9GoazW1-99" value="사내" style="text;html=1;strokeColor=none;fillColor=none;align=center;verticalAlign=middle;whiteSpace=wrap;rounded=0;container=0;" vertex="1" parent="1">
          <mxGeometry x="2109.5" y="-3401" width="92" height="34" as="geometry" />
        </mxCell>
        <mxCell id="o8AhM5z9xb0QQ9GoazW1-100" value="" style="sketch=0;points=[[0,0,0],[0.25,0,0],[0.5,0,0],[0.75,0,0],[1,0,0],[1,0.25,0],[1,0.5,0],[1,0.75,0],[1,1,0],[0.75,1,0],[0.5,1,0],[0.25,1,0],[0,1,0],[0,0.75,0],[0,0.5,0],[0,0.25,0]];rounded=1;absoluteArcSize=1;arcSize=2;html=1;strokeColor=none;gradientColor=none;shadow=0;dashed=0;fontSize=12;fontColor=#9E9E9E;align=left;verticalAlign=top;spacing=10;spacingTop=-4;whiteSpace=wrap;fillColor=#F3E5F5;container=0;" vertex="1" parent="1">
          <mxGeometry x="2049.5" y="-3371" width="72" height="32" as="geometry" />
        </mxCell>
        <mxCell id="o8AhM5z9xb0QQ9GoazW1-101" value="Output" style="text;html=1;strokeColor=none;fillColor=none;align=center;verticalAlign=middle;whiteSpace=wrap;rounded=0;container=0;" vertex="1" parent="1">
          <mxGeometry x="2108.5" y="-3373" width="92" height="34" as="geometry" />
        </mxCell>
        <mxCell id="o8AhM5z9xb0QQ9GoazW1-102" value="&lt;b style=&quot;font-size: 9px;&quot;&gt;Internal&lt;br&gt;&lt;/b&gt;" style="text;html=1;strokeColor=none;fillColor=none;align=center;verticalAlign=middle;whiteSpace=wrap;rounded=0;fontStyle=2;fontColor=#8977fa;container=0;" vertex="1" parent="1">
          <mxGeometry x="2794.5" y="-3120" width="61.06" height="30" as="geometry" />
        </mxCell>
        <mxCell id="o8AhM5z9xb0QQ9GoazW1-103" value="Transit&lt;br&gt;Gateway" style="sketch=0;outlineConnect=0;fontColor=#232F3E;gradientColor=none;strokeColor=#232F3E;fillColor=#ffffff;dashed=0;verticalLabelPosition=bottom;verticalAlign=top;align=center;html=1;fontSize=12;fontStyle=0;aspect=fixed;shape=mxgraph.aws4.resourceIcon;resIcon=mxgraph.aws4.customer_gateway;container=0;" vertex="1" parent="1">
          <mxGeometry x="2482.5" y="-2896" width="41" height="41" as="geometry" />
        </mxCell>
        <mxCell id="o8AhM5z9xb0QQ9GoazW1-104" value="&lt;b&gt;&lt;font style=&quot;font-size: 10px;&quot;&gt;On-prem/GCP &amp;lt;&amp;gt; VPC 네트워크 연결 허브&lt;/font&gt;&lt;/b&gt;" style="text;html=1;strokeColor=none;fillColor=none;align=center;verticalAlign=middle;whiteSpace=wrap;rounded=0;fontStyle=2;fontColor=#8977fa;container=0;" vertex="1" parent="1">
          <mxGeometry x="2467.5" y="-2818" width="105.76" height="30" as="geometry" />
        </mxCell>
        <mxCell id="o8AhM5z9xb0QQ9GoazW1-105" value="&lt;b&gt;&lt;font style=&quot;font-size: 10px;&quot;&gt;Network Stabler&lt;/font&gt;&lt;/b&gt;" style="text;html=1;strokeColor=none;fillColor=none;align=center;verticalAlign=middle;whiteSpace=wrap;rounded=0;fontStyle=2;fontColor=#8977fa;container=0;" vertex="1" parent="1">
          <mxGeometry x="2450.12" y="-3013.5" width="105.76" height="30" as="geometry" />
        </mxCell>
        <mxCell id="o8AhM5z9xb0QQ9GoazW1-106" value="&lt;b style=&quot;font-size: 10px;&quot;&gt;AWS 자원이 위치할 &lt;br&gt;가상 네트워크 망 (동일 IP, Multi AZ)&lt;/b&gt;" style="text;html=1;strokeColor=none;fillColor=none;align=center;verticalAlign=middle;whiteSpace=wrap;rounded=0;fontStyle=2;fontColor=#8977fa;container=0;" vertex="1" parent="1">
          <mxGeometry x="2702.25" y="-3235" width="202.5" height="30" as="geometry" />
        </mxCell>
        <mxCell id="o8AhM5z9xb0QQ9GoazW1-107" value="&lt;b&gt;Process&lt;br&gt;&lt;/b&gt;(5 Steps)" style="text;html=1;strokeColor=none;fillColor=none;align=center;verticalAlign=middle;whiteSpace=wrap;rounded=0;container=0;" vertex="1" parent="1">
          <mxGeometry x="3361.6800000000003" y="-3069" width="92" height="30" as="geometry" />
        </mxCell>
        <mxCell id="o8AhM5z9xb0QQ9GoazW1-108" value="Infrastructure &lt;br&gt;as a Code" style="sketch=0;points=[[0,0,0],[0.25,0,0],[0.5,0,0],[0.75,0,0],[1,0,0],[1,0.25,0],[1,0.5,0],[1,0.75,0],[1,1,0],[0.75,1,0],[0.5,1,0],[0.25,1,0],[0,1,0],[0,0.75,0],[0,0.5,0],[0,0.25,0]];rounded=1;absoluteArcSize=1;arcSize=2;html=1;strokeColor=none;gradientColor=none;shadow=0;dashed=0;fontSize=12;fontColor=#9E9E9E;align=left;verticalAlign=top;spacing=10;spacingTop=-4;whiteSpace=wrap;fillColor=#F3E5F5;container=0;" vertex="1" parent="1">
          <mxGeometry x="3305.5" y="-3531" width="264" height="137.5" as="geometry" />
        </mxCell>
        <mxCell id="o8AhM5z9xb0QQ9GoazW1-109" value="&lt;b&gt;&lt;font style=&quot;font-size: 10px;&quot;&gt;NoSQL DataBase&lt;/font&gt;&lt;/b&gt;" style="text;html=1;strokeColor=none;fillColor=none;align=center;verticalAlign=middle;whiteSpace=wrap;rounded=0;fontStyle=2;fontColor=#8977fa;container=0;" vertex="1" parent="1">
          <mxGeometry x="3449.12" y="-3522" width="105.76" height="30" as="geometry" />
        </mxCell>
        <mxCell id="o8AhM5z9xb0QQ9GoazW1-110" value="" style="endArrow=none;html=1;rounded=0;exitX=1.013;exitY=0.68;exitDx=0;exitDy=0;exitPerimeter=0;" edge="1" parent="1">
          <mxGeometry width="50" height="50" relative="1" as="geometry">
            <mxPoint x="3401.7067099999995" y="-3458" as="sourcePoint" />
            <mxPoint x="3416.09" y="-3457.7593422611767" as="targetPoint" />
          </mxGeometry>
        </mxCell>
        <mxCell id="o8AhM5z9xb0QQ9GoazW1-111" value="" style="shape=image;html=1;verticalAlign=top;verticalLabelPosition=bottom;labelBackgroundColor=#ffffff;imageAspect=0;aspect=fixed;image=https://cdn1.iconfinder.com/data/icons/hawcons/32/699120-icon-44-file-xlsx-128.png;container=0;" vertex="1" parent="1">
          <mxGeometry x="3415.09" y="-3473" width="31" height="31" as="geometry" />
        </mxCell>
        <mxCell id="o8AhM5z9xb0QQ9GoazW1-112" value="Amazon DynamoDB" style="sketch=0;outlineConnect=0;fontColor=#232F3E;gradientColor=none;strokeColor=#ffffff;fillColor=#232F3E;dashed=0;verticalLabelPosition=middle;verticalAlign=bottom;align=center;html=1;whiteSpace=wrap;fontSize=10;fontStyle=1;spacing=3;shape=mxgraph.aws4.productIcon;prIcon=mxgraph.aws4.dynamodb;container=0;" vertex="1" parent="1">
          <mxGeometry x="3471.5" y="-3494" width="55" height="85" as="geometry" />
        </mxCell>
        <mxCell id="o8AhM5z9xb0QQ9GoazW1-113" value="" style="endArrow=classic;html=1;rounded=0;startArrow=none;entryX=0;entryY=0.433;entryDx=0;entryDy=0;entryPerimeter=0;" edge="1" parent="1" source="o8AhM5z9xb0QQ9GoazW1-111" target="o8AhM5z9xb0QQ9GoazW1-112">
          <mxGeometry width="50" height="50" relative="1" as="geometry">
            <mxPoint x="3391.5" y="-3455" as="sourcePoint" />
            <mxPoint x="3469.5" y="-3456" as="targetPoint" />
          </mxGeometry>
        </mxCell>
        <mxCell id="o8AhM5z9xb0QQ9GoazW1-114" value="" style="endArrow=classic;html=1;rounded=0;entryX=0.5;entryY=0;entryDx=0;entryDy=0;startArrow=none;" edge="1" parent="1" source="o8AhM5z9xb0QQ9GoazW1-116" target="o8AhM5z9xb0QQ9GoazW1-64">
          <mxGeometry width="50" height="50" relative="1" as="geometry">
            <mxPoint x="3415.5" y="-3092" as="sourcePoint" />
            <mxPoint x="3465.5" y="-3142" as="targetPoint" />
          </mxGeometry>
        </mxCell>
        <mxCell id="o8AhM5z9xb0QQ9GoazW1-115" value="" style="endArrow=none;html=1;rounded=0;entryX=0.5;entryY=0;entryDx=0;entryDy=0;exitX=0.5;exitY=1;exitDx=0;exitDy=0;" edge="1" parent="1" target="o8AhM5z9xb0QQ9GoazW1-116">
          <mxGeometry width="50" height="50" relative="1" as="geometry">
            <mxPoint x="3427.2149999999997" y="-3175.9999999999995" as="sourcePoint" />
            <mxPoint x="3405.5" y="-5763" as="targetPoint" />
          </mxGeometry>
        </mxCell>
        <mxCell id="o8AhM5z9xb0QQ9GoazW1-116" value="3" style="ellipse;whiteSpace=wrap;html=1;aspect=fixed;strokeWidth=2;fontFamily=Tahoma;spacingBottom=4;spacingRight=2;strokeColor=#d3d3d3;container=0;" vertex="1" parent="1">
          <mxGeometry x="3416.9900000000002" y="-3150" width="20" height="20" as="geometry" />
        </mxCell>
        <mxCell id="o8AhM5z9xb0QQ9GoazW1-117" value="&lt;b style=&quot;font-size: 9px;&quot;&gt;Commit/Push&lt;br&gt;&lt;/b&gt;" style="text;html=1;strokeColor=none;fillColor=none;align=center;verticalAlign=middle;whiteSpace=wrap;rounded=0;fontStyle=2;fontColor=#8977fa;container=0;" vertex="1" parent="1">
          <mxGeometry x="2289.5" y="-3122" width="111.82" height="30" as="geometry" />
        </mxCell>
        <mxCell id="o8AhM5z9xb0QQ9GoazW1-118" value="&lt;b style=&quot;font-size: 9px;&quot;&gt;각 단계 적용 유무&lt;br&gt;&lt;/b&gt;" style="text;html=1;strokeColor=none;fillColor=none;align=center;verticalAlign=middle;whiteSpace=wrap;rounded=0;fontStyle=2;fontColor=#8977fa;container=0;" vertex="1" parent="1">
          <mxGeometry x="3404.5" y="-3090" width="111.82" height="30" as="geometry" />
        </mxCell>
        <mxCell id="o8AhM5z9xb0QQ9GoazW1-119" value="4" style="ellipse;whiteSpace=wrap;html=1;aspect=fixed;strokeWidth=2;fontFamily=Tahoma;spacingBottom=4;spacingRight=2;strokeColor=#d3d3d3;container=0;" vertex="1" parent="1">
          <mxGeometry x="3445.5" y="-2728" width="20" height="20" as="geometry" />
        </mxCell>
        <mxCell id="o8AhM5z9xb0QQ9GoazW1-120" value="Public Subnet" style="sketch=0;outlineConnect=0;gradientColor=none;html=1;whiteSpace=wrap;fontSize=12;fontStyle=0;shape=mxgraph.aws4.group;grIcon=mxgraph.aws4.group_subnet;strokeColor=#879196;fillColor=none;verticalAlign=top;align=left;spacingLeft=30;fontColor=#879196;dashed=0;container=0;" vertex="1" parent="1">
          <mxGeometry x="2652.5" y="-3442.08" width="250" height="200" as="geometry" />
        </mxCell>
        <mxCell id="o8AhM5z9xb0QQ9GoazW1-121" value="Private Subnet" style="sketch=0;outlineConnect=0;gradientColor=none;html=1;whiteSpace=wrap;fontSize=12;fontStyle=0;shape=mxgraph.aws4.group;grIcon=mxgraph.aws4.group_subnet;strokeColor=#879196;fillColor=none;verticalAlign=top;align=left;spacingLeft=30;fontColor=#879196;dashed=0;container=0;" vertex="1" parent="1">
          <mxGeometry x="2912.5" y="-3442.08" width="200" height="199" as="geometry" />
        </mxCell>
        <mxCell id="o8AhM5z9xb0QQ9GoazW1-122" value="" style="curved=1;endArrow=classic;html=1;rounded=0;strokeColor=#c91818;strokeWidth=3;" edge="1" parent="1" source="o8AhM5z9xb0QQ9GoazW1-147">
          <mxGeometry width="50" height="50" relative="1" as="geometry">
            <mxPoint x="2663.5" y="-3372" as="sourcePoint" />
            <mxPoint x="2884.5" y="-3350" as="targetPoint" />
            <Array as="points">
              <mxPoint x="2804.5" y="-3402" />
              <mxPoint x="2834.5" y="-3395" />
              <mxPoint x="2848.5" y="-3379" />
              <mxPoint x="2865.5" y="-3372" />
            </Array>
          </mxGeometry>
        </mxCell>
        <mxCell id="o8AhM5z9xb0QQ9GoazW1-123" value="" style="curved=1;endArrow=classic;html=1;rounded=0;strokeColor=#c91818;strokeWidth=3;" edge="1" parent="1" source="o8AhM5z9xb0QQ9GoazW1-149" target="o8AhM5z9xb0QQ9GoazW1-151">
          <mxGeometry width="50" height="50" relative="1" as="geometry">
            <mxPoint x="2804.5" y="-3316.08" as="sourcePoint" />
            <mxPoint x="2881.5" y="-3359" as="targetPoint" />
            <Array as="points">
              <mxPoint x="2816.5" y="-3321" />
              <mxPoint x="2837.5" y="-3338" />
            </Array>
          </mxGeometry>
        </mxCell>
        <mxCell id="o8AhM5z9xb0QQ9GoazW1-124" value="" style="outlineConnect=0;dashed=0;verticalLabelPosition=bottom;verticalAlign=top;align=center;html=1;shape=mxgraph.aws3.waf;fillColor=#759C3E;gradientColor=none;container=0;" vertex="1" parent="1">
          <mxGeometry x="2980.5" y="-3372" width="29.55" height="35.92" as="geometry" />
        </mxCell>
        <mxCell id="o8AhM5z9xb0QQ9GoazW1-125" value="&lt;b style=&quot;font-size: 9px;&quot;&gt;Internet&lt;br style=&quot;font-size: 9px;&quot;&gt;Facing&lt;br&gt;&lt;/b&gt;" style="text;html=1;strokeColor=none;fillColor=none;align=center;verticalAlign=middle;whiteSpace=wrap;rounded=0;fontStyle=2;fontColor=#8977fa;container=0;" vertex="1" parent="1">
          <mxGeometry x="2706.5" y="-3390" width="61.06" height="30" as="geometry" />
        </mxCell>
        <mxCell id="o8AhM5z9xb0QQ9GoazW1-126" value="&lt;b&gt;&lt;font color=&quot;#ec1313&quot;&gt;cicd.lgensol.com&lt;/font&gt;&lt;/b&gt;" style="html=1;strokeWidth=1;shadow=0;dashed=0;shape=mxgraph.ios7ui.url;fillColor=#e0e0e0;strokeColor=#c0c0c0;buttonText=;strokeColor2=#222222;fontColor=#222222;fontSize=8;spacingTop=2;align=center;whiteSpace=wrap;container=0;" vertex="1" parent="1">
          <mxGeometry x="2786.5" y="-3417" width="119" height="12.5" as="geometry" />
        </mxCell>
        <mxCell id="o8AhM5z9xb0QQ9GoazW1-127" value="&lt;div style=&quot;&quot;&gt;&lt;b style=&quot;background-color: initial; font-size: 9px;&quot;&gt;Web Application 보안에 특화된 솔루션&lt;/b&gt;&lt;/div&gt;" style="text;html=1;strokeColor=none;fillColor=none;align=center;verticalAlign=middle;whiteSpace=wrap;rounded=0;fontStyle=2;fontColor=#8977fa;container=0;" vertex="1" parent="1">
          <mxGeometry x="3026.5" y="-3334" width="117" height="28.42" as="geometry" />
        </mxCell>
        <mxCell id="o8AhM5z9xb0QQ9GoazW1-128" value="&lt;b&gt;&lt;font style=&quot;font-size: 10px;&quot;&gt;TCP&lt;/font&gt;&lt;/b&gt;" style="text;html=1;strokeColor=#82b366;fillColor=#d5e8d4;align=center;verticalAlign=middle;whiteSpace=wrap;rounded=0;container=0;" vertex="1" parent="1">
          <mxGeometry x="2877.93" y="-3300.5" width="56.05" height="20.42" as="geometry" />
        </mxCell>
        <mxCell id="o8AhM5z9xb0QQ9GoazW1-129" value="&lt;span style=&quot;font-size: 10px;&quot;&gt;&lt;b&gt;HTTP&lt;/b&gt;&lt;/span&gt;" style="text;html=1;strokeColor=#82b366;fillColor=#d5e8d4;align=center;verticalAlign=middle;whiteSpace=wrap;rounded=0;container=0;" vertex="1" parent="1">
          <mxGeometry x="2967.25" y="-3300.5" width="56.05" height="20.42" as="geometry" />
        </mxCell>
        <mxCell id="o8AhM5z9xb0QQ9GoazW1-130" value="" style="curved=1;endArrow=classic;html=1;rounded=0;strokeColor=#1579b7;strokeWidth=3;dashed=1;" edge="1" parent="1">
          <mxGeometry width="50" height="50" relative="1" as="geometry">
            <mxPoint x="2930.3" y="-3352.66" as="sourcePoint" />
            <mxPoint x="2973.5" y="-3353" as="targetPoint" />
            <Array as="points" />
          </mxGeometry>
        </mxCell>
        <mxCell id="o8AhM5z9xb0QQ9GoazW1-131" value="&lt;div style=&quot;&quot;&gt;&lt;font size=&quot;1&quot;&gt;&lt;b&gt;외부에서 Direct로 접근 불가&lt;/b&gt;&lt;/font&gt;&lt;/div&gt;" style="text;html=1;strokeColor=none;fillColor=none;align=center;verticalAlign=middle;whiteSpace=wrap;rounded=0;fontStyle=2;fontColor=#8977fa;container=0;" vertex="1" parent="1">
          <mxGeometry x="2982.5" y="-3465" width="133" height="28.42" as="geometry" />
        </mxCell>
        <mxCell id="o8AhM5z9xb0QQ9GoazW1-132" value="" style="curved=1;endArrow=classic;html=1;rounded=0;strokeColor=#1579b7;strokeWidth=3;dashed=1;" edge="1" parent="1" target="o8AhM5z9xb0QQ9GoazW1-86">
          <mxGeometry width="50" height="50" relative="1" as="geometry">
            <mxPoint x="3014.5" y="-3275" as="sourcePoint" />
            <mxPoint x="3059.7" y="-3268.24" as="targetPoint" />
            <Array as="points">
              <mxPoint x="3089.5" y="-3249" />
              <mxPoint x="2990.5" y="-3172" />
              <mxPoint x="2921.5" y="-3129" />
            </Array>
          </mxGeometry>
        </mxCell>
        <mxCell id="o8AhM5z9xb0QQ9GoazW1-134" value="&lt;b&gt;&lt;font style=&quot;font-size: 10px;&quot;&gt;H/W 장비 테스트&lt;/font&gt;&lt;/b&gt;" style="text;html=1;strokeColor=none;fillColor=none;align=center;verticalAlign=middle;whiteSpace=wrap;rounded=0;fontStyle=2;fontColor=#8977fa;container=0;" vertex="1" parent="1">
          <mxGeometry x="3374.12" y="-2623" width="105.76" height="30" as="geometry" />
        </mxCell>
        <mxCell id="o8AhM5z9xb0QQ9GoazW1-135" value="" style="sketch=0;points=[[0,0,0],[0.25,0,0],[0.5,0,0],[0.75,0,0],[1,0,0],[0,1,0],[0.25,1,0],[0.5,1,0],[0.75,1,0],[1,1,0],[0,0.25,0],[0,0.5,0],[0,0.75,0],[1,0.25,0],[1,0.5,0],[1,0.75,0]];outlineConnect=0;fontColor=#232F3E;gradientColor=#945DF2;gradientDirection=north;fillColor=#5A30B5;strokeColor=#ffffff;dashed=0;verticalLabelPosition=bottom;verticalAlign=top;align=center;html=1;fontSize=12;fontStyle=0;aspect=fixed;shape=mxgraph.aws4.resourceIcon;resIcon=mxgraph.aws4.direct_connect;container=0;" vertex="1" parent="1">
          <mxGeometry x="2504.88" y="-2989" width="46" height="46" as="geometry" />
        </mxCell>
        <mxCell id="o8AhM5z9xb0QQ9GoazW1-136" value="" style="sketch=0;outlineConnect=0;fontColor=#232F3E;gradientColor=none;fillColor=#4D27AA;strokeColor=none;dashed=0;verticalLabelPosition=bottom;verticalAlign=top;align=center;html=1;fontSize=12;fontStyle=0;aspect=fixed;pointerEvents=1;shape=mxgraph.aws4.gateway;container=0;" vertex="1" parent="1">
          <mxGeometry x="2554.5" y="-3100.5" width="29.23" height="30" as="geometry" />
        </mxCell>
        <mxCell id="o8AhM5z9xb0QQ9GoazW1-137" value="DX&#xa;Gateway&#xa;(VGW)" style="text;strokeColor=none;fillColor=none;align=center;verticalAlign=top;spacingLeft=4;spacingRight=4;overflow=hidden;rotatable=0;points=[[0,0.5],[1,0.5]];portConstraint=eastwest;fontStyle=1;container=0;" vertex="1" parent="1">
          <mxGeometry x="2519.11" y="-3071.5" width="100" height="50.5" as="geometry" />
        </mxCell>
        <mxCell id="o8AhM5z9xb0QQ9GoazW1-145" value="Terraform" style="text;strokeColor=none;fillColor=none;align=center;verticalAlign=top;spacingLeft=4;spacingRight=4;overflow=hidden;rotatable=0;points=[[0,0.5],[1,0.5]];portConstraint=eastwest;fontStyle=1;container=0;" vertex="1" parent="1">
          <mxGeometry x="3315.5000000000005" y="-3446" width="100" height="26" as="geometry" />
        </mxCell>
        <mxCell id="o8AhM5z9xb0QQ9GoazW1-146" value="" style="shape=image;verticalLabelPosition=bottom;labelBackgroundColor=default;verticalAlign=top;aspect=fixed;imageAspect=0;image=https://www.aviator.co/blog/wp-content/uploads/2023/01/terraform.png;container=0;" vertex="1" parent="1">
          <mxGeometry x="3332.17" y="-3492" width="66.67" height="50" as="geometry" />
        </mxCell>
        <mxCell id="o8AhM5z9xb0QQ9GoazW1-147" value="" style="sketch=0;outlineConnect=0;fontColor=#232F3E;gradientColor=none;fillColor=#4D27AA;strokeColor=none;dashed=0;verticalLabelPosition=bottom;verticalAlign=top;align=center;html=1;fontSize=12;fontStyle=0;aspect=fixed;pointerEvents=1;shape=mxgraph.aws4.network_load_balancer;container=0;" vertex="1" parent="1">
          <mxGeometry x="2757.9700000000003" y="-3407" width="34" height="34" as="geometry" />
        </mxCell>
        <mxCell id="o8AhM5z9xb0QQ9GoazW1-148" value="&lt;b&gt;&lt;font style=&quot;font-size: 10px;&quot;&gt;Network&lt;br&gt;Load Balancer&lt;br&gt;&lt;/font&gt;&lt;/b&gt;" style="text;html=1;strokeColor=none;fillColor=none;align=center;verticalAlign=middle;whiteSpace=wrap;rounded=0;container=0;" vertex="1" parent="1">
          <mxGeometry x="2736.5" y="-3370" width="76.94" height="21.5" as="geometry" />
        </mxCell>
        <mxCell id="o8AhM5z9xb0QQ9GoazW1-149" value="" style="sketch=0;outlineConnect=0;fontColor=#232F3E;gradientColor=none;fillColor=#4D27AA;strokeColor=none;dashed=0;verticalLabelPosition=bottom;verticalAlign=top;align=center;html=1;fontSize=12;fontStyle=0;aspect=fixed;pointerEvents=1;shape=mxgraph.aws4.application_load_balancer;container=0;" vertex="1" parent="1">
          <mxGeometry x="2757.4700000000003" y="-3334" width="35" height="35" as="geometry" />
        </mxCell>
        <mxCell id="o8AhM5z9xb0QQ9GoazW1-150" value="&lt;b&gt;&lt;font style=&quot;font-size: 10px;&quot;&gt;Application&lt;br&gt;Load Balancer&lt;br&gt;&lt;/font&gt;&lt;/b&gt;" style="text;html=1;strokeColor=none;fillColor=none;align=center;verticalAlign=middle;whiteSpace=wrap;rounded=0;container=0;" vertex="1" parent="1">
          <mxGeometry x="2736.5" y="-3297" width="76.94" height="21.5" as="geometry" />
        </mxCell>
        <mxCell id="o8AhM5z9xb0QQ9GoazW1-151" value="" style="sketch=0;outlineConnect=0;fontColor=#232F3E;gradientColor=none;fillColor=#232F3D;strokeColor=none;dashed=0;verticalLabelPosition=bottom;verticalAlign=top;align=center;html=1;fontSize=12;fontStyle=0;aspect=fixed;pointerEvents=1;shape=mxgraph.aws4.generic_firewall;container=0;" vertex="1" parent="1">
          <mxGeometry x="2886.5" y="-3372" width="38.91" height="32.92" as="geometry" />
        </mxCell>
        <mxCell id="o8AhM5z9xb0QQ9GoazW1-152" value="&lt;b style=&quot;font-size: 9px;&quot;&gt;&lt;font style=&quot;font-size: 9px;&quot;&gt;White&lt;br&gt;List&lt;br&gt;&lt;/font&gt;&lt;/b&gt;" style="text;html=1;strokeColor=none;fillColor=none;align=center;verticalAlign=middle;whiteSpace=wrap;rounded=0;container=0;" vertex="1" parent="1">
          <mxGeometry x="2861.45" y="-3334" width="89" height="21.5" as="geometry" />
        </mxCell>
        <mxCell id="o8AhM5z9xb0QQ9GoazW1-153" value="" style="curved=1;endArrow=classic;html=1;rounded=0;strokeColor=#1579b7;strokeWidth=3;entryX=0.588;entryY=0;entryDx=0;entryDy=0;entryPerimeter=0;" edge="1" parent="1" target="o8AhM5z9xb0QQ9GoazW1-84">
          <mxGeometry width="50" height="50" relative="1" as="geometry">
            <mxPoint x="2927.5" y="-3271" as="sourcePoint" />
            <mxPoint x="2788.5" y="-3058.18" as="targetPoint" />
            <Array as="points">
              <mxPoint x="2965.5" y="-3236" />
              <mxPoint x="2948.5" y="-3198" />
              <mxPoint x="2899.5" y="-3180" />
              <mxPoint x="2866.5" y="-3138" />
            </Array>
          </mxGeometry>
        </mxCell>
        <mxCell id="o8AhM5z9xb0QQ9GoazW1-155" value="&lt;font color=&quot;#04db00&quot;&gt;&lt;span style=&quot;font-size: 10px;&quot;&gt;&lt;b&gt;HTTP&lt;/b&gt;&lt;/span&gt;&lt;/font&gt;" style="text;html=1;strokeColor=none;fillColor=none;align=center;verticalAlign=middle;whiteSpace=wrap;rounded=0;fontStyle=2;fontColor=#8977fa;container=0;" vertex="1" parent="1">
          <mxGeometry x="2880.16" y="-3097" width="47.34" height="30" as="geometry" />
        </mxCell>
        <mxCell id="o8AhM5z9xb0QQ9GoazW1-156" value="&lt;font color=&quot;#04db00&quot;&gt;&lt;span style=&quot;font-size: 10px;&quot;&gt;&lt;b&gt;TCP&lt;/b&gt;&lt;/span&gt;&lt;/font&gt;" style="text;html=1;strokeColor=none;fillColor=none;align=center;verticalAlign=middle;whiteSpace=wrap;rounded=0;fontStyle=2;fontColor=#8977fa;container=0;" vertex="1" parent="1">
          <mxGeometry x="2794.36" y="-3097" width="47.34" height="30" as="geometry" />
        </mxCell>
        <mxCell id="o8AhM5z9xb0QQ9GoazW1-159" value="&lt;b&gt;Google &lt;/b&gt;Cloud Platform" style="shadow=0;fontSize=14;align=left;spacing=10;9E9E9E;verticalAlign=top;spacingTop=-4;fontStyle=0;spacingLeft=40;html=1;whiteSpace=wrap;opacity=30;strokeWidth=1;container=0;gradientColor=none;" vertex="1" parent="1">
          <mxGeometry x="2191.39" y="-2636" width="153.11" height="158" as="geometry" />
        </mxCell>
        <mxCell id="o8AhM5z9xb0QQ9GoazW1-160" value="LGES Legacy (Local, G-Cloud)" style="sketch=0;outlineConnect=0;gradientColor=none;html=1;whiteSpace=wrap;fontSize=12;fontStyle=0;shape=mxgraph.aws4.group;grIcon=mxgraph.aws4.group_on_premise;strokeColor=#858B94;fillColor=none;verticalAlign=top;align=left;spacingLeft=30;fontColor=#858B94;dashed=0;container=0;" vertex="1" parent="1">
          <mxGeometry x="2053.5" y="-2954" width="393" height="488" as="geometry" />
        </mxCell>
        <mxCell id="o8AhM5z9xb0QQ9GoazW1-161" value="" style="rounded=1;whiteSpace=wrap;html=1;" vertex="1" parent="1">
          <mxGeometry x="3373.5" y="-3250.08" width="107.43" height="87.08" as="geometry" />
        </mxCell>
        <mxCell id="o8AhM5z9xb0QQ9GoazW1-162" value="" style="aspect=fixed;html=1;points=[];align=center;image;fontSize=12;image=img/lib/azure2/ai_machine_learning/Language_Services.svg;" vertex="1" parent="1">
          <mxGeometry x="3446.748117963948" y="-3245.5" width="19.69444892091484" height="19.69444892091484" as="geometry" />
        </mxCell>
        <mxCell id="o8AhM5z9xb0QQ9GoazW1-163" value="" style="shape=or;whiteSpace=wrap;html=1;" vertex="1" parent="1">
          <mxGeometry x="3424.10142275019" y="-3240.9638554216867" width="10.190620899233375" height="15.909638554216867" as="geometry" />
        </mxCell>
        <mxCell id="o8AhM5z9xb0QQ9GoazW1-164" value="" style="group" vertex="1" connectable="0" parent="1">
          <mxGeometry x="3375.5" y="-3245.5" width="50.020270736929355" height="45.76114457831333" as="geometry" />
        </mxCell>
        <mxCell id="o8AhM5z9xb0QQ9GoazW1-165" value="" style="sketch=0;outlineConnect=0;fontColor=#232F3E;gradientColor=none;fillColor=#067F68;strokeColor=none;dashed=0;verticalLabelPosition=bottom;verticalAlign=top;align=center;html=1;fontSize=12;fontStyle=0;aspect=fixed;shape=mxgraph.aws4.mainframe_modernization_compiler;" vertex="1" parent="o8AhM5z9xb0QQ9GoazW1-164">
          <mxGeometry x="12.542302645210308" width="21.052686777529658" height="21.052686777529658" as="geometry" />
        </mxCell>
        <mxCell id="o8AhM5z9xb0QQ9GoazW1-166" value="&lt;b style=&quot;font-size: 9px;&quot;&gt;&lt;font style=&quot;font-size: 9px;&quot;&gt;Compiler&lt;br style=&quot;font-size: 9px;&quot;&gt;유형&lt;br&gt;&lt;/font&gt;&lt;/b&gt;" style="text;html=1;strokeColor=none;fillColor=none;align=center;verticalAlign=middle;whiteSpace=wrap;rounded=0;container=0;" vertex="1" parent="o8AhM5z9xb0QQ9GoazW1-164">
          <mxGeometry y="27.63253012048193" width="50.020270736929355" height="19.80331325301205" as="geometry" />
        </mxCell>
        <mxCell id="o8AhM5z9xb0QQ9GoazW1-167" value="&lt;font style=&quot;font-size: 10px;&quot;&gt;&lt;b&gt;개발언어&lt;br&gt;(C, C++,&lt;br&gt;C#, ...)&lt;/b&gt;&lt;/font&gt;" style="text;html=1;strokeColor=none;fillColor=none;align=center;verticalAlign=middle;whiteSpace=wrap;rounded=0;container=0;" vertex="1" parent="1">
          <mxGeometry x="3427.2369984114926" y="-3211.3313253012047" width="61.76300158850751" height="19.80331325301205" as="geometry" />
        </mxCell>
        <mxCell id="o8AhM5z9xb0QQ9GoazW1-168" value="Build Output (binary)" style="sketch=0;points=[[0,0,0],[0.25,0,0],[0.5,0,0],[0.75,0,0],[1,0,0],[1,0.25,0],[1,0.5,0],[1,0.75,0],[1,1,0],[0.75,1,0],[0.5,1,0],[0.25,1,0],[0,1,0],[0,0.75,0],[0,0.5,0],[0,0.25,0]];rounded=1;absoluteArcSize=1;arcSize=2;html=1;strokeColor=none;gradientColor=none;shadow=0;dashed=0;fontSize=12;fontColor=#9E9E9E;align=left;verticalAlign=top;spacing=10;spacingTop=-4;whiteSpace=wrap;fillColor=#F3E5F5;container=0;" vertex="1" parent="1">
          <mxGeometry x="2649.5" y="-2626" width="632" height="143.5" as="geometry" />
        </mxCell>
        <mxCell id="o8AhM5z9xb0QQ9GoazW1-169" value="" style="shape=flexArrow;endArrow=classic;html=1;rounded=0;endWidth=8.333333333333334;endSize=5.3355704697986575;startArrow=none;width=6.308724832214765;" edge="1" parent="1" source="o8AhM5z9xb0QQ9GoazW1-189">
          <mxGeometry width="50" height="50" relative="1" as="geometry">
            <mxPoint x="3050.5" y="-2550.3711507293356" as="sourcePoint" />
            <mxPoint x="3219.5" y="-2585" as="targetPoint" />
          </mxGeometry>
        </mxCell>
        <mxCell id="o8AhM5z9xb0QQ9GoazW1-177" value="&lt;b&gt;&lt;font style=&quot;font-size: 10px;&quot;&gt;VM(20)&lt;/font&gt;&lt;/b&gt;" style="text;html=1;strokeColor=none;fillColor=none;align=center;verticalAlign=middle;whiteSpace=wrap;rounded=0;container=0;" vertex="1" parent="1">
          <mxGeometry x="2888.694029850746" y="-2527.6470588235297" width="43.88059701492537" height="23.64705882352941" as="geometry" />
        </mxCell>
        <mxCell id="o8AhM5z9xb0QQ9GoazW1-179" value="&lt;b&gt;&lt;font style=&quot;font-size: 10px;&quot;&gt;per Build Task&lt;/font&gt;&lt;/b&gt;" style="text;html=1;strokeColor=none;fillColor=none;align=center;verticalAlign=middle;whiteSpace=wrap;rounded=0;fontStyle=2;fontColor=#8977fa;container=0;" vertex="1" parent="1">
          <mxGeometry x="2799.68" y="-2517" width="105.76" height="30" as="geometry" />
        </mxCell>
        <mxCell id="o8AhM5z9xb0QQ9GoazW1-181" value="&lt;b&gt;&lt;font style=&quot;font-size: 10px;&quot;&gt;VM (1)&lt;/font&gt;&lt;/b&gt;" style="text;html=1;strokeColor=none;fillColor=none;align=center;verticalAlign=middle;whiteSpace=wrap;rounded=0;container=0;" vertex="1" parent="1">
          <mxGeometry x="2780.3240298507462" y="-2527.6470588235297" width="43.88059701492537" height="23.64705882352941" as="geometry" />
        </mxCell>
        <mxCell id="o8AhM5z9xb0QQ9GoazW1-183" value="" style="group" vertex="1" connectable="0" parent="1">
          <mxGeometry x="2783.5" y="-2701" width="49" height="67" as="geometry" />
        </mxCell>
        <mxCell id="o8AhM5z9xb0QQ9GoazW1-184" value="" style="shape=image;verticalLabelPosition=bottom;labelBackgroundColor=default;verticalAlign=top;aspect=fixed;imageAspect=0;image=https://miro.medium.com/max/1400/1*LOFbTP2SxXcFpM_qTsUSuw.png;container=0;" vertex="1" parent="o8AhM5z9xb0QQ9GoazW1-183">
          <mxGeometry y="-12.65" width="48.99999999999999" height="48.99999999999999" as="geometry" />
        </mxCell>
        <mxCell id="o8AhM5z9xb0QQ9GoazW1-185" value="&lt;b&gt;&lt;font style=&quot;font-size: 10px;&quot;&gt;Master&amp;nbsp; (1)&lt;/font&gt;&lt;/b&gt;" style="text;html=1;strokeColor=none;fillColor=none;align=center;verticalAlign=middle;whiteSpace=wrap;rounded=0;container=0;" vertex="1" parent="o8AhM5z9xb0QQ9GoazW1-183">
          <mxGeometry x="2.194029850746233" y="36.352941176470495" width="43.88059701492537" height="23.64705882352941" as="geometry" />
        </mxCell>
        <mxCell id="o8AhM5z9xb0QQ9GoazW1-186" value="&lt;font color=&quot;#04db00&quot;&gt;&lt;span style=&quot;font-size: 10px;&quot;&gt;&lt;b&gt;HTTP: 8083&lt;/b&gt;&lt;/span&gt;&lt;/font&gt;" style="text;html=1;strokeColor=none;fillColor=none;align=center;verticalAlign=middle;whiteSpace=wrap;rounded=0;fontStyle=2;fontColor=#8977fa;container=0;" vertex="1" parent="1">
          <mxGeometry x="2813.49" y="-2710" width="73.53" height="30" as="geometry" />
        </mxCell>
        <mxCell id="o8AhM5z9xb0QQ9GoazW1-187" value="" style="shape=flexArrow;endArrow=none;html=1;rounded=0;endWidth=8.333333333333334;endSize=5.390000000000001;" edge="1" parent="1">
          <mxGeometry width="50" height="50" relative="1" as="geometry">
            <mxPoint x="2965" y="-2583" as="sourcePoint" />
            <mxPoint x="3084.5" y="-2583" as="targetPoint" />
          </mxGeometry>
        </mxCell>
        <mxCell id="o8AhM5z9xb0QQ9GoazW1-188" value="" style="shape=image;html=1;verticalAlign=top;verticalLabelPosition=bottom;labelBackgroundColor=#ffffff;imageAspect=0;aspect=fixed;image=https://cdn3.iconfinder.com/data/icons/dompicon-glyph-file-format-2/256/file-msi-format-type-128.png;container=0;" vertex="1" parent="1">
          <mxGeometry x="3084.5" y="-2607" width="43" height="43" as="geometry" />
        </mxCell>
        <mxCell id="o8AhM5z9xb0QQ9GoazW1-189" value="" style="shape=image;html=1;verticalAlign=top;verticalLabelPosition=bottom;labelBackgroundColor=#ffffff;imageAspect=0;aspect=fixed;image=https://cdn3.iconfinder.com/data/icons/dompicon-glyph-file-format-2/256/file-jar-format-type-128.png;container=0;" vertex="1" parent="1">
          <mxGeometry x="3116.5" y="-2607" width="43" height="43" as="geometry" />
        </mxCell>
        <mxCell id="o8AhM5z9xb0QQ9GoazW1-190" value="" style="shape=flexArrow;endArrow=none;html=1;rounded=0;endWidth=8.333333333333334;endSize=5.390000000000001;" edge="1" parent="1">
          <mxGeometry width="50" height="50" relative="1" as="geometry">
            <mxPoint x="2965" y="-2516" as="sourcePoint" />
            <mxPoint x="3087.5" y="-2516" as="targetPoint" />
          </mxGeometry>
        </mxCell>
        <mxCell id="o8AhM5z9xb0QQ9GoazW1-191" value="" style="shape=image;html=1;verticalAlign=top;verticalLabelPosition=bottom;labelBackgroundColor=#ffffff;imageAspect=0;aspect=fixed;image=https://cdn2.iconfinder.com/data/icons/essential-web-1-1/50/archive-box-document-office-paper-128.png" vertex="1" parent="1">
          <mxGeometry x="3090" y="-2542" width="32" height="32" as="geometry" />
        </mxCell>
        <mxCell id="o8AhM5z9xb0QQ9GoazW1-192" value="&lt;span style=&quot;font-size: 10px;&quot;&gt;&lt;b&gt;.WAR&lt;/b&gt;&lt;/span&gt;" style="text;html=1;strokeColor=none;fillColor=none;align=center;verticalAlign=middle;whiteSpace=wrap;rounded=0;container=0;" vertex="1" parent="1">
          <mxGeometry x="3084.064029850746" y="-2509.9970588235296" width="43.88059701492537" height="23.64705882352941" as="geometry" />
        </mxCell>
        <mxCell id="o8AhM5z9xb0QQ9GoazW1-193" value="" style="shape=flexArrow;endArrow=classic;html=1;rounded=0;endWidth=8.333333333333334;endSize=5.3355704697986575;startArrow=none;width=6.308724832214765;" edge="1" parent="1">
          <mxGeometry width="50" height="50" relative="1" as="geometry">
            <mxPoint x="3124.5" y="-2518" as="sourcePoint" />
            <mxPoint x="3218.5" y="-2518" as="targetPoint" />
          </mxGeometry>
        </mxCell>
        <mxCell id="o8AhM5z9xb0QQ9GoazW1-194" value="" style="shape=image;verticalLabelPosition=bottom;labelBackgroundColor=default;verticalAlign=top;aspect=fixed;imageAspect=0;image=https://upload.wikimedia.org/wikipedia/commons/thumb/f/fe/Apache_Tomcat_logo.svg/800px-Apache_Tomcat_logo.svg.png;" vertex="1" parent="1">
          <mxGeometry x="3224.26" y="-2532.8199999999997" width="44.97" height="31.82" as="geometry" />
        </mxCell>
        <mxCell id="o8AhM5z9xb0QQ9GoazW1-195" value="&lt;span style=&quot;font-size: 10px;&quot;&gt;&lt;b&gt;&lt;font color=&quot;#ff0000&quot;&gt;WAS&lt;/font&gt;&lt;/b&gt;&lt;/span&gt;" style="text;html=1;strokeColor=none;fillColor=none;align=center;verticalAlign=middle;whiteSpace=wrap;rounded=0;container=0;" vertex="1" parent="1">
          <mxGeometry x="3224.064029850746" y="-2506.1470588235297" width="43.88059701492537" height="23.64705882352941" as="geometry" />
        </mxCell>
        <mxCell id="o8AhM5z9xb0QQ9GoazW1-199" value="&lt;font color=&quot;#259217&quot;&gt;CI/CD VPC (Virtual Private Cloud)&lt;/font&gt;" style="points=[[0,0],[0.25,0],[0.5,0],[0.75,0],[1,0],[1,0.25],[1,0.5],[1,0.75],[1,1],[0.75,1],[0.5,1],[0.25,1],[0,1],[0,0.75],[0,0.5],[0,0.25]];outlineConnect=0;gradientColor=none;html=1;whiteSpace=wrap;fontSize=12;fontStyle=0;container=0;pointerEvents=0;collapsible=0;recursiveResize=0;shape=mxgraph.aws4.group;grIcon=mxgraph.aws4.group_vpc;strokeColor=#248814;fillColor=none;verticalAlign=top;align=left;spacingLeft=30;fontColor=#AAB7B8;dashed=0;" vertex="1" parent="1">
          <mxGeometry x="2635.5" y="-3214" width="654" height="781" as="geometry" />
        </mxCell>
        <mxCell id="o8AhM5z9xb0QQ9GoazW1-200" value="Availabilty Zone 1&lt;br&gt;(ap-northeast-2a)" style="points=[[0,0],[0.25,0],[0.5,0],[0.75,0],[1,0],[1,0.25],[1,0.5],[1,0.75],[1,1],[0.75,1],[0.5,1],[0.25,1],[0,1],[0,0.75],[0,0.5],[0,0.25]];outlineConnect=0;gradientColor=none;html=1;whiteSpace=wrap;fontSize=12;fontStyle=0;container=0;pointerEvents=0;collapsible=0;recursiveResize=0;shape=mxgraph.aws4.group;grIcon=mxgraph.aws4.group_region;strokeColor=#147EBA;fillColor=none;verticalAlign=top;align=left;spacingLeft=30;fontColor=#147EBA;" vertex="1" parent="1">
          <mxGeometry x="2656.5" y="-3180" width="320" height="733" as="geometry" />
        </mxCell>
        <mxCell id="o8AhM5z9xb0QQ9GoazW1-201" value="" style="endArrow=none;html=1;rounded=0;entryX=-0.045;entryY=0.651;entryDx=0;entryDy=0;entryPerimeter=0;" edge="1" parent="1" source="o8AhM5z9xb0QQ9GoazW1-163" target="o8AhM5z9xb0QQ9GoazW1-162">
          <mxGeometry width="50" height="50" relative="1" as="geometry">
            <mxPoint x="3436.5" y="-3237" as="sourcePoint" />
            <mxPoint x="3475.876027349955" y="-3276.4578313253014" as="targetPoint" />
          </mxGeometry>
        </mxCell>
        <mxCell id="o8AhM5z9xb0QQ9GoazW1-202" value="" style="endArrow=none;html=1;rounded=0;entryX=-0.045;entryY=0.651;entryDx=0;entryDy=0;entryPerimeter=0;" edge="1" parent="1">
          <mxGeometry width="50" height="50" relative="1" as="geometry">
            <mxPoint x="3413.5" y="-3232" as="sourcePoint" />
            <mxPoint x="3424.5" y="-3232" as="targetPoint" />
          </mxGeometry>
        </mxCell>
        <mxCell id="o8AhM5z9xb0QQ9GoazW1-203" value="&lt;div style=&quot;&quot;&gt;&lt;b style=&quot;background-color: initial; font-size: 9px;&quot;&gt;(공통)Groovy Code&lt;/b&gt;&lt;/div&gt;&lt;div style=&quot;&quot;&gt;&lt;b style=&quot;background-color: initial; font-size: 9px;&quot;&gt;(개별)Jenkins Files&lt;/b&gt;&lt;/div&gt;" style="text;html=1;strokeColor=none;fillColor=none;align=center;verticalAlign=middle;whiteSpace=wrap;rounded=0;fontStyle=2;fontColor=#8977fa;container=0;" vertex="1" parent="1">
          <mxGeometry x="3432.1800000000003" y="-3159" width="117" height="28.42" as="geometry" />
        </mxCell>
        <mxCell id="o8AhM5z9xb0QQ9GoazW1-209" value="Direct&#xa;Connect&#xa;(DX)" style="text;strokeColor=none;fillColor=none;align=center;verticalAlign=top;spacingLeft=4;spacingRight=4;overflow=hidden;rotatable=0;points=[[0,0.5],[1,0.5]];portConstraint=eastwest;fontStyle=1;container=0;" vertex="1" parent="1">
          <mxGeometry x="2477.88" y="-2947" width="100" height="50.5" as="geometry" />
        </mxCell>
        <mxCell id="o8AhM5z9xb0QQ9GoazW1-227" value="&lt;font style=&quot;font-size: 36px;&quot;&gt;...&lt;/font&gt;" style="text;strokeColor=none;fillColor=none;align=left;verticalAlign=middle;spacingLeft=4;spacingRight=4;overflow=hidden;points=[[0,0.5],[1,0.5]];portConstraint=eastwest;rotatable=0;whiteSpace=wrap;html=1;container=0;" vertex="1" parent="1">
          <mxGeometry x="3164.74" y="-2595" width="63.76" height="51" as="geometry" />
        </mxCell>
        <mxCell id="o8AhM5z9xb0QQ9GoazW1-228" value="Jenkins Master Server (16 Core, 64 Mem)" style="points=[[0,0],[0.25,0],[0.5,0],[0.75,0],[1,0],[1,0.25],[1,0.5],[1,0.75],[1,1],[0.75,1],[0.5,1],[0.25,1],[0,1],[0,0.75],[0,0.5],[0,0.25]];outlineConnect=0;gradientColor=none;html=1;whiteSpace=wrap;fontSize=12;fontStyle=0;container=1;pointerEvents=0;collapsible=0;recursiveResize=0;shape=mxgraph.aws4.group;grIcon=mxgraph.aws4.group_on_premise;strokeColor=#5A6C86;fillColor=none;verticalAlign=top;align=left;spacingLeft=30;fontColor=#5A6C86;dashed=0;" vertex="1" parent="1">
          <mxGeometry x="2652" y="-2767" width="328" height="294" as="geometry" />
        </mxCell>
        <mxCell id="o8AhM5z9xb0QQ9GoazW1-220" value="&lt;b&gt;&lt;font style=&quot;font-size: 10px;&quot;&gt;Infra 관리 그룹 (Node)&lt;/font&gt;&lt;/b&gt;" style="text;html=1;strokeColor=none;fillColor=none;align=center;verticalAlign=middle;whiteSpace=wrap;rounded=0;fontStyle=2;fontColor=#8977fa;container=0;" vertex="1" parent="o8AhM5z9xb0QQ9GoazW1-228">
          <mxGeometry x="191.25999999999996" y="24" width="111" height="30" as="geometry" />
        </mxCell>
        <mxCell id="o8AhM5z9xb0QQ9GoazW1-238" value="Build Server (64 Core, 512 Mem)" style="points=[[0,0],[0.25,0],[0.5,0],[0.75,0],[1,0],[1,0.25],[1,0.5],[1,0.75],[1,1],[0.75,1],[0.5,1],[0.25,1],[0,1],[0,0.75],[0,0.5],[0,0.25]];outlineConnect=0;gradientColor=none;html=1;whiteSpace=wrap;fontSize=12;fontStyle=0;container=1;pointerEvents=0;collapsible=0;recursiveResize=0;shape=mxgraph.aws4.group;grIcon=mxgraph.aws4.group_on_premise;strokeColor=#5A6C86;fillColor=none;verticalAlign=top;align=left;spacingLeft=30;fontColor=#5A6C86;dashed=0;" vertex="1" parent="o8AhM5z9xb0QQ9GoazW1-228">
          <mxGeometry x="9" y="172" width="304" height="107" as="geometry" />
        </mxCell>
        <mxCell id="o8AhM5z9xb0QQ9GoazW1-240" value="&lt;font style=&quot;font-size: 36px;&quot;&gt;...&lt;/font&gt;" style="text;strokeColor=none;fillColor=none;align=left;verticalAlign=middle;spacingLeft=4;spacingRight=4;overflow=hidden;points=[[0,0.5],[1,0.5]];portConstraint=eastwest;rotatable=0;whiteSpace=wrap;html=1;container=0;" vertex="1" parent="o8AhM5z9xb0QQ9GoazW1-238">
          <mxGeometry x="161.07000000000016" y="26.5" width="157" height="51" as="geometry" />
        </mxCell>
        <mxCell id="o8AhM5z9xb0QQ9GoazW1-174" value="&lt;b&gt;&lt;font style=&quot;font-size: 10px;&quot;&gt;Infra 용량 제공(VM)&lt;/font&gt;&lt;/b&gt;" style="text;html=1;strokeColor=none;fillColor=none;align=center;verticalAlign=middle;whiteSpace=wrap;rounded=0;fontStyle=2;fontColor=#8977fa;container=0;" vertex="1" parent="o8AhM5z9xb0QQ9GoazW1-238">
          <mxGeometry x="142.07000000000016" y="-30" width="132" height="30" as="geometry" />
        </mxCell>
        <mxCell id="o8AhM5z9xb0QQ9GoazW1-234" value="" style="image;html=1;image=img/lib/clip_art/computers/Virtual_Machine_128x128.png" vertex="1" parent="1">
          <mxGeometry x="2780.32" y="-2563" width="38" height="38" as="geometry" />
        </mxCell>
        <mxCell id="o8AhM5z9xb0QQ9GoazW1-235" value="" style="image;html=1;image=img/lib/clip_art/computers/Virtual_Machine_128x128.png" vertex="1" parent="1">
          <mxGeometry x="2887.4100000000003" y="-2563" width="38" height="38" as="geometry" />
        </mxCell>
        <mxCell id="o8AhM5z9xb0QQ9GoazW1-241" value="Testing Server (64 Core, 512 Mem)" style="points=[[0,0],[0.25,0],[0.5,0],[0.75,0],[1,0],[1,0.25],[1,0.5],[1,0.75],[1,1],[0.75,1],[0.5,1],[0.25,1],[0,1],[0,0.75],[0,0.5],[0,0.25]];outlineConnect=0;gradientColor=none;html=1;whiteSpace=wrap;fontSize=12;fontStyle=0;container=1;pointerEvents=0;collapsible=0;recursiveResize=0;shape=mxgraph.aws4.group;grIcon=mxgraph.aws4.group_on_premise;strokeColor=#5A6C86;fillColor=none;verticalAlign=top;align=left;spacingLeft=30;fontColor=#5A6C86;dashed=0;" vertex="1" parent="1">
          <mxGeometry x="2652" y="-2908" width="330" height="118" as="geometry" />
        </mxCell>
        <mxCell id="o8AhM5z9xb0QQ9GoazW1-242" value="&lt;b&gt;&lt;font style=&quot;font-size: 10px;&quot;&gt;Infra 관리 그룹 (Node)&lt;/font&gt;&lt;/b&gt;" style="text;html=1;strokeColor=none;fillColor=none;align=center;verticalAlign=middle;whiteSpace=wrap;rounded=0;fontStyle=2;fontColor=#8977fa;container=0;" vertex="1" parent="o8AhM5z9xb0QQ9GoazW1-241">
          <mxGeometry x="208.93999999999997" y="20" width="111" height="30" as="geometry" />
        </mxCell>
        <mxCell id="o8AhM5z9xb0QQ9GoazW1-264" value="&lt;b&gt;&lt;font style=&quot;font-size: 10px;&quot;&gt;Polyspace&lt;br&gt;&lt;/font&gt;&lt;/b&gt;" style="text;html=1;strokeColor=none;fillColor=none;align=center;verticalAlign=middle;whiteSpace=wrap;rounded=0;container=0;" vertex="1" parent="o8AhM5z9xb0QQ9GoazW1-241">
          <mxGeometry x="28" y="83.35" width="43.88" height="17.65" as="geometry" />
        </mxCell>
        <mxCell id="o8AhM5z9xb0QQ9GoazW1-265" value="" style="image;html=1;image=img/lib/clip_art/computers/Virtual_Machine_128x128.png" vertex="1" parent="o8AhM5z9xb0QQ9GoazW1-241">
          <mxGeometry x="28" y="45" width="38" height="38" as="geometry" />
        </mxCell>
        <mxCell id="o8AhM5z9xb0QQ9GoazW1-270" value="&lt;b&gt;&lt;font style=&quot;font-size: 10px;&quot;&gt;VectorCAST&lt;/font&gt;&lt;/b&gt;" style="text;html=1;strokeColor=none;fillColor=none;align=center;verticalAlign=middle;whiteSpace=wrap;rounded=0;container=0;" vertex="1" parent="o8AhM5z9xb0QQ9GoazW1-241">
          <mxGeometry x="100.00402985074606" y="80.35294117647027" width="43.88059701492537" height="23.64705882352941" as="geometry" />
        </mxCell>
        <mxCell id="o8AhM5z9xb0QQ9GoazW1-271" value="" style="image;html=1;image=img/lib/clip_art/computers/Virtual_Machine_128x128.png" vertex="1" parent="o8AhM5z9xb0QQ9GoazW1-241">
          <mxGeometry x="101.94000000000005" y="45" width="38" height="38" as="geometry" />
        </mxCell>
        <mxCell id="o8AhM5z9xb0QQ9GoazW1-272" value="&lt;span style=&quot;font-size: 10px;&quot;&gt;&lt;b&gt;Matlab Simulink&lt;/b&gt;&lt;/span&gt;" style="text;html=1;strokeColor=none;fillColor=none;align=center;verticalAlign=middle;whiteSpace=wrap;rounded=0;container=0;" vertex="1" parent="o8AhM5z9xb0QQ9GoazW1-241">
          <mxGeometry x="173.00402985074606" y="84.35294117647027" width="43.88059701492537" height="23.64705882352941" as="geometry" />
        </mxCell>
        <mxCell id="o8AhM5z9xb0QQ9GoazW1-273" value="" style="image;html=1;image=img/lib/clip_art/computers/Virtual_Machine_128x128.png" vertex="1" parent="o8AhM5z9xb0QQ9GoazW1-241">
          <mxGeometry x="174.94000000000005" y="45" width="38" height="38" as="geometry" />
        </mxCell>
        <mxCell id="o8AhM5z9xb0QQ9GoazW1-274" value="&lt;span style=&quot;font-size: 10px;&quot;&gt;&lt;b&gt;SonarQube&lt;/b&gt;&lt;/span&gt;" style="text;html=1;strokeColor=none;fillColor=none;align=center;verticalAlign=middle;whiteSpace=wrap;rounded=0;container=0;" vertex="1" parent="o8AhM5z9xb0QQ9GoazW1-241">
          <mxGeometry x="242.00402985074606" y="80.35294117647027" width="43.88059701492537" height="23.64705882352941" as="geometry" />
        </mxCell>
        <mxCell id="o8AhM5z9xb0QQ9GoazW1-275" value="" style="image;html=1;image=img/lib/clip_art/computers/Virtual_Machine_128x128.png" vertex="1" parent="o8AhM5z9xb0QQ9GoazW1-241">
          <mxGeometry x="243.94000000000005" y="45" width="38" height="38" as="geometry" />
        </mxCell>
        <mxCell id="o8AhM5z9xb0QQ9GoazW1-4" value="Load Balancer Subnet" style="sketch=0;outlineConnect=0;gradientColor=none;html=1;whiteSpace=wrap;fontSize=12;fontStyle=0;shape=mxgraph.aws4.group;grIcon=mxgraph.aws4.group_subnet;strokeColor=#879196;fillColor=none;verticalAlign=top;align=left;spacingLeft=30;fontColor=#879196;dashed=0;container=0;" vertex="1" parent="1">
          <mxGeometry x="2652.5" y="-3141" width="328.5" height="96" as="geometry" />
        </mxCell>
        <mxCell id="o8AhM5z9xb0QQ9GoazW1-269" value="Proxy Server" style="points=[[0,0],[0.25,0],[0.5,0],[0.75,0],[1,0],[1,0.25],[1,0.5],[1,0.75],[1,1],[0.75,1],[0.5,1],[0.25,1],[0,1],[0,0.75],[0,0.5],[0,0.25]];outlineConnect=0;gradientColor=none;html=1;whiteSpace=wrap;fontSize=12;fontStyle=0;container=1;pointerEvents=0;collapsible=0;recursiveResize=0;shape=mxgraph.aws4.group;grIcon=mxgraph.aws4.group_on_premise;strokeColor=#5A6C86;fillColor=none;verticalAlign=top;align=left;spacingLeft=30;fontColor=#5A6C86;dashed=0;" vertex="1" parent="1">
          <mxGeometry x="2635.5" y="-3480.08" width="525.5" height="245.08" as="geometry" />
        </mxCell>
        <mxCell id="o8AhM5z9xb0QQ9GoazW1-296" value="Github Server (단독 서버 / 16 Core, 64 Mem)" style="points=[[0,0],[0.25,0],[0.5,0],[0.75,0],[1,0],[1,0.25],[1,0.5],[1,0.75],[1,1],[0.75,1],[0.5,1],[0.25,1],[0,1],[0,0.75],[0,0.5],[0,0.25]];outlineConnect=0;gradientColor=none;html=1;whiteSpace=wrap;fontSize=12;fontStyle=0;container=1;pointerEvents=0;collapsible=0;recursiveResize=0;shape=mxgraph.aws4.group;grIcon=mxgraph.aws4.group_on_premise;strokeColor=#5A6C86;fillColor=none;verticalAlign=top;align=left;spacingLeft=30;fontColor=#5A6C86;dashed=0;" vertex="1" parent="1">
          <mxGeometry x="2652.5" y="-3039" width="328.5" height="118.18" as="geometry" />
        </mxCell>
        <mxCell id="o8AhM5z9xb0QQ9GoazW1-308" value="NAS" style="strokeColor=#dddddd;shadow=1;strokeWidth=1;rounded=1;absoluteArcSize=1;arcSize=2;labelPosition=center;verticalLabelPosition=middle;align=center;verticalAlign=bottom;spacingLeft=0;fontColor=#999999;fontSize=12;whiteSpace=wrap;spacingBottom=2;html=1;" vertex="1" parent="1">
          <mxGeometry x="3159.5" y="-2964.25" width="70" height="85" as="geometry" />
        </mxCell>
        <mxCell id="o8AhM5z9xb0QQ9GoazW1-309" value="" style="sketch=0;dashed=0;connectable=0;html=1;fillColor=#757575;strokeColor=none;shape=mxgraph.gcp2.storage;part=1;" vertex="1" parent="o8AhM5z9xb0QQ9GoazW1-308">
          <mxGeometry x="0.5" width="50" height="40" relative="1" as="geometry">
            <mxPoint x="-25" y="15" as="offset" />
          </mxGeometry>
        </mxCell>
        <mxCell id="o8AhM5z9xb0QQ9GoazW1-310" value="Cloud C4" style="sketch=0;outlineConnect=0;gradientColor=none;html=1;whiteSpace=wrap;fontSize=12;fontStyle=0;shape=mxgraph.aws4.group;grIcon=mxgraph.aws4.group_vpc;strokeColor=#879196;fillColor=none;verticalAlign=top;align=left;spacingLeft=30;fontColor=#879196;dashed=0;" vertex="1" parent="1">
          <mxGeometry x="2569.5" y="-3568" width="731.5" height="1141" as="geometry" />
        </mxCell>
      </root>
    </mxGraphModel>
  </diagram>
</mxfile>
